<svg id="svg" version="1.1" xmlns="http://www.w3.org/2000/svg" xmlns:xlink="http://www.w3.org/1999/xlink" width="400" height="470.4225352112676" viewBox="0, 0, 400,470.4225352112676"><g id="svgg"><path id="path0" d="M16.400 17.000 C 16.400 22.933,16.366 23.200,15.600 23.200 C 14.816 23.200,14.800 23.467,14.800 36.600 C 14.800 48.244,14.721 50.000,14.200 50.000 C 13.679 50.000,13.600 51.756,13.600 63.400 C 13.600 76.533,13.584 76.800,12.800 76.800 C 12.016 76.800,12.000 77.067,12.000 90.387 C 12.000 102.301,11.926 103.947,11.400 103.745 C 10.881 103.545,10.800 104.458,10.800 110.527 L 10.800 117.539 18.400 117.582 L 26.000 117.626 26.000 114.813 C 26.000 112.267,26.076 112.000,26.800 112.000 C 27.557 112.000,27.600 111.733,27.600 107.000 C 27.600 102.822,27.699 102.000,28.200 102.000 C 28.686 102.000,28.800 101.361,28.800 98.647 C 28.800 95.630,28.880 95.272,29.600 95.084 C 30.268 94.909,30.400 94.538,30.400 92.837 C 30.400 91.293,30.545 90.800,31.000 90.800 C 31.453 90.800,31.600 90.311,31.600 88.800 C 31.600 87.067,31.707 86.800,32.400 86.800 C 33.103 86.800,33.200 86.533,33.200 84.600 C 33.200 82.911,33.339 82.400,33.800 82.400 C 34.219 82.400,34.400 81.978,34.400 81.000 C 34.400 79.867,34.552 79.600,35.200 79.600 C 35.848 79.600,36.000 79.333,36.000 78.200 C 36.000 77.222,36.181 76.800,36.600 76.800 C 37.019 76.800,37.200 76.378,37.200 75.400 C 37.200 74.267,37.352 74.000,38.000 74.000 C 38.648 74.000,38.800 73.733,38.800 72.600 C 38.800 71.622,38.981 71.200,39.400 71.200 C 39.733 71.200,40.000 70.844,40.000 70.400 C 40.000 69.867,40.267 69.600,40.800 69.600 C 41.448 69.600,41.600 69.333,41.600 68.200 C 41.600 67.222,41.781 66.800,42.200 66.800 C 42.530 66.800,42.800 66.530,42.800 66.200 C 42.800 65.867,43.156 65.600,43.600 65.600 C 44.133 65.600,44.400 65.333,44.400 64.800 C 44.400 64.330,44.667 64.000,45.047 64.000 C 45.477 64.000,45.629 63.754,45.501 63.266 C 45.347 62.675,45.494 62.567,46.255 62.713 C 47.008 62.856,47.200 62.721,47.200 62.047 C 47.200 61.534,47.455 61.200,47.847 61.200 C 48.277 61.200,48.429 60.954,48.301 60.466 C 48.147 59.875,48.294 59.767,49.055 59.913 C 49.846 60.064,50.000 59.929,50.000 59.084 C 50.000 58.272,50.156 58.116,50.800 58.284 C 51.356 58.430,51.600 58.296,51.600 57.847 C 51.600 57.491,51.870 57.200,52.200 57.200 C 52.567 57.200,52.800 56.826,52.800 56.237 C 52.800 55.472,52.964 55.318,53.600 55.484 C 54.156 55.630,54.400 55.496,54.400 55.047 C 54.400 54.691,54.691 54.400,55.047 54.400 C 55.496 54.400,55.630 54.156,55.484 53.600 C 55.318 52.964,55.472 52.800,56.237 52.800 C 56.826 52.800,57.200 52.567,57.200 52.200 C 57.200 51.796,57.604 51.600,58.437 51.600 C 59.338 51.600,59.732 51.383,59.884 50.800 C 60.043 50.192,60.430 50.000,61.493 50.000 C 62.749 50.000,62.875 49.903,62.713 49.055 C 62.567 48.294,62.675 48.147,63.266 48.301 C 63.754 48.429,64.000 48.277,64.000 47.847 C 64.000 47.329,64.441 47.200,66.200 47.200 C 68.133 47.200,68.400 47.103,68.400 46.400 C 68.400 45.752,68.667 45.600,69.800 45.600 C 70.778 45.600,71.200 45.419,71.200 45.000 C 71.200 44.524,71.778 44.400,74.000 44.400 C 76.533 44.400,76.800 44.324,76.800 43.600 C 76.800 42.850,77.067 42.800,81.043 42.800 C 84.650 42.800,85.251 42.710,85.055 42.200 C 84.853 41.673,86.655 41.600,99.813 41.600 C 114.533 41.600,114.800 41.586,114.800 40.800 C 114.800 40.008,115.067 40.000,141.600 40.000 L 168.400 40.000 168.400 222.353 C 168.400 404.370,168.399 404.707,167.600 404.916 C 166.843 405.114,166.800 405.462,166.800 411.363 C 166.800 416.640,166.708 417.600,166.200 417.600 C 165.724 417.600,165.600 418.178,165.600 420.400 C 165.600 422.933,165.524 423.200,164.800 423.200 C 164.097 423.200,164.000 423.467,164.000 425.400 C 164.000 427.089,163.861 427.600,163.400 427.600 C 162.947 427.600,162.800 428.089,162.800 429.600 C 162.800 431.163,162.661 431.600,162.163 431.600 C 161.812 431.600,161.431 431.960,161.316 432.400 C 161.201 432.840,160.858 433.200,160.553 433.200 C 160.188 433.200,160.000 433.675,160.000 434.600 C 160.000 435.733,159.848 436.000,159.200 436.000 C 158.756 436.000,158.400 436.267,158.400 436.600 C 158.400 436.930,158.130 437.200,157.800 437.200 C 157.467 437.200,157.200 437.556,157.200 438.000 C 157.200 438.533,156.933 438.800,156.400 438.800 C 155.734 438.800,155.617 439.034,155.700 440.199 C 155.811 441.758,157.200 442.315,157.200 440.800 C 157.200 440.340,157.467 440.000,157.827 440.000 C 158.240 440.000,158.380 439.762,158.236 439.300 C 158.116 438.915,158.211 438.330,158.447 438.000 C 158.808 437.494,158.840 437.510,158.650 438.100 C 158.488 438.606,158.643 438.800,159.213 438.800 C 159.733 438.800,160.000 438.529,160.000 438.000 C 160.000 437.560,160.259 437.200,160.576 437.200 C 160.953 437.200,161.195 436.681,161.276 435.700 C 161.379 434.451,161.534 434.223,162.200 434.338 C 162.640 434.414,162.867 434.341,162.703 434.175 C 162.307 433.772,163.187 432.745,163.672 433.045 C 163.882 433.174,164.020 433.037,163.979 432.740 C 163.676 430.528,164.036 428.800,164.800 428.800 C 165.489 428.800,165.600 428.533,165.600 426.876 C 165.600 425.804,165.860 424.609,166.187 424.176 C 166.541 423.709,166.780 422.485,166.787 421.100 C 166.799 419.071,166.894 418.800,167.600 418.800 C 168.365 418.800,168.400 418.533,168.400 412.643 C 168.400 407.539,168.503 406.446,169.000 406.255 C 169.532 406.051,169.600 385.255,169.600 222.418 L 169.600 38.811 141.600 38.811 C 113.931 38.811,113.600 38.820,113.600 39.606 C 113.600 40.384,113.299 40.400,98.800 40.400 C 85.911 40.400,84.000 40.477,84.000 41.000 C 84.000 41.495,83.267 41.600,79.800 41.600 C 75.867 41.600,75.600 41.651,75.600 42.400 C 75.600 43.124,75.333 43.200,72.800 43.200 C 70.578 43.200,70.000 43.324,70.000 43.800 C 70.000 44.233,69.556 44.400,68.400 44.400 C 67.067 44.400,66.800 44.533,66.800 45.200 C 66.800 45.895,66.533 46.000,64.773 46.000 C 62.977 46.000,62.773 46.085,62.983 46.746 C 63.181 47.369,63.052 47.461,62.210 47.300 C 61.387 47.143,61.200 47.264,61.200 47.953 C 61.200 48.521,60.947 48.800,60.433 48.800 C 60.012 48.800,59.576 49.025,59.465 49.300 C 59.304 49.700,59.257 49.700,59.232 49.300 C 59.186 48.585,58.400 48.679,58.400 49.400 C 58.400 49.819,57.978 50.000,57.000 50.000 C 55.867 50.000,55.600 50.152,55.600 50.800 C 55.600 51.244,55.333 51.600,55.000 51.600 C 54.670 51.600,54.400 51.870,54.400 52.200 C 54.400 52.533,54.044 52.800,53.600 52.800 C 53.067 52.800,52.800 53.067,52.800 53.600 C 52.800 54.044,52.533 54.400,52.200 54.400 C 51.870 54.400,51.600 54.670,51.600 55.000 C 51.600 55.333,51.244 55.600,50.800 55.600 C 50.267 55.600,50.000 55.867,50.000 56.400 C 50.000 56.844,49.733 57.200,49.400 57.200 C 49.070 57.200,48.800 57.470,48.800 57.800 C 48.800 58.144,48.439 58.400,47.953 58.400 C 47.264 58.400,47.143 58.587,47.300 59.410 C 47.461 60.252,47.369 60.381,46.746 60.183 C 46.235 60.021,46.000 60.143,46.000 60.573 C 46.000 60.945,45.655 61.200,45.153 61.200 C 44.479 61.200,44.344 61.392,44.487 62.145 C 44.634 62.913,44.527 63.054,43.917 62.894 C 43.427 62.766,43.207 62.886,43.283 63.239 C 43.348 63.542,43.003 63.842,42.500 63.918 C 41.914 64.008,41.600 64.334,41.600 64.851 C 41.600 65.351,41.772 65.541,42.062 65.362 C 42.333 65.194,42.416 65.251,42.261 65.501 C 42.117 65.734,41.632 65.829,41.183 65.711 C 40.733 65.594,40.395 65.656,40.430 65.849 C 40.696 67.298,40.338 68.400,39.600 68.400 C 39.067 68.400,38.800 68.667,38.800 69.200 C 38.800 69.644,38.533 70.000,38.200 70.000 C 37.781 70.000,37.600 70.422,37.600 71.400 C 37.600 72.533,37.448 72.800,36.800 72.800 C 36.152 72.800,36.000 73.067,36.000 74.200 C 36.000 75.333,35.848 75.600,35.200 75.600 C 34.552 75.600,34.400 75.867,34.400 77.000 C 34.400 77.978,34.219 78.400,33.800 78.400 C 33.391 78.400,33.198 78.814,33.194 79.700 C 33.191 80.415,33.013 81.270,32.800 81.600 C 32.542 82.000,32.410 82.033,32.406 81.700 C 32.403 81.425,32.220 81.200,32.000 81.200 C 31.780 81.200,31.600 82.100,31.600 83.200 C 31.600 84.711,31.453 85.200,31.000 85.200 C 30.540 85.200,30.400 85.709,30.400 87.377 C 30.400 89.074,30.230 89.674,29.629 90.095 C 29.141 90.436,28.811 91.216,28.729 92.217 C 28.647 93.219,28.417 93.763,28.100 93.700 C 27.730 93.626,27.600 94.533,27.600 97.200 C 27.600 100.515,27.538 100.800,26.812 100.800 C 26.075 100.800,26.017 101.130,25.912 105.900 C 25.828 109.720,25.675 110.975,25.300 110.900 C 24.938 110.828,24.800 111.573,24.800 113.600 L 24.800 116.400 18.400 116.400 L 12.000 116.400 12.000 110.600 C 12.000 105.711,12.094 104.800,12.600 104.800 C 13.121 104.800,13.200 103.044,13.200 91.400 C 13.200 78.267,13.216 78.000,14.000 78.000 C 14.784 78.000,14.800 77.733,14.800 64.800 C 14.800 53.333,14.879 51.600,15.400 51.600 C 15.921 51.600,16.000 49.844,16.000 38.200 C 16.000 24.965,16.010 24.800,16.819 24.800 C 17.615 24.800,17.634 24.621,17.519 18.300 L 17.400 11.800 203.500 11.901 L 389.600 12.002 389.600 23.813 C 389.600 33.944,389.685 35.658,390.200 35.855 C 390.725 36.057,390.800 39.428,390.800 62.843 C 390.800 89.333,390.808 89.600,391.600 89.600 C 392.384 89.600,392.400 89.867,392.400 103.000 L 392.400 116.400 386.000 116.400 L 379.600 116.400 379.600 114.200 C 379.600 112.267,379.503 112.000,378.800 112.000 C 378.051 112.000,378.000 111.733,378.000 107.800 C 378.000 104.263,377.902 103.600,377.376 103.600 C 376.991 103.600,376.863 103.791,377.041 104.100 C 377.199 104.375,377.185 104.471,377.011 104.313 C 376.836 104.155,376.728 102.310,376.770 100.213 C 376.843 96.606,376.802 96.400,376.023 96.400 C 375.294 96.400,375.200 96.154,375.200 94.233 C 375.200 92.874,375.014 91.991,374.700 91.865 C 374.300 91.704,374.300 91.657,374.700 91.632 C 375.415 91.586,375.321 90.800,374.600 90.800 C 374.154 90.800,374.000 90.329,374.000 88.963 C 374.000 87.462,373.854 87.087,373.200 86.916 C 372.537 86.742,372.400 86.370,372.400 84.741 C 372.400 83.362,372.221 82.706,371.800 82.545 C 371.390 82.387,371.200 81.746,371.200 80.520 C 371.200 79.062,371.050 78.686,370.400 78.516 C 369.799 78.359,369.600 77.970,369.600 76.953 C 369.600 76.017,369.415 75.600,369.000 75.600 C 368.667 75.600,368.400 75.244,368.400 74.800 C 368.400 74.267,368.133 74.000,367.600 74.000 C 366.950 74.000,366.800 73.733,366.800 72.573 C 366.800 71.349,366.691 71.181,366.033 71.389 C 365.412 71.587,365.307 71.478,365.480 70.816 C 365.645 70.184,365.502 70.000,364.847 70.000 C 364.254 70.000,364.000 69.749,364.000 69.162 C 364.000 68.701,363.645 67.825,363.212 67.217 C 362.778 66.608,362.538 65.995,362.678 65.855 C 362.819 65.715,362.556 65.600,362.094 65.600 C 361.232 65.600,359.418 63.515,359.878 63.055 C 360.019 62.915,359.743 62.800,359.267 62.800 C 358.667 62.800,358.400 62.554,358.400 62.000 C 358.400 61.560,358.175 61.245,357.900 61.300 C 357.587 61.363,357.353 60.838,357.276 59.900 C 357.160 58.503,357.063 58.400,355.865 58.400 C 354.247 58.400,352.800 57.414,352.800 56.311 C 352.800 55.846,352.685 55.581,352.545 55.722 C 352.093 56.174,350.000 54.372,350.000 53.531 C 350.000 52.822,349.793 52.736,348.401 52.868 C 347.018 53.000,346.833 52.925,347.028 52.310 C 347.195 51.786,347.037 51.600,346.427 51.600 C 345.867 51.600,345.600 51.342,345.600 50.800 C 345.600 50.152,345.333 50.000,344.200 50.000 C 343.222 50.000,342.800 49.819,342.800 49.400 C 342.800 48.985,342.383 48.800,341.447 48.800 C 340.430 48.800,340.041 48.601,339.884 48.000 C 339.732 47.417,339.338 47.200,338.437 47.200 C 337.604 47.200,337.200 47.004,337.200 46.600 C 337.200 46.185,336.783 46.000,335.847 46.000 C 334.830 46.000,334.441 45.801,334.284 45.200 C 334.113 44.546,333.738 44.400,332.237 44.400 C 330.871 44.400,330.400 44.246,330.400 43.800 C 330.400 43.324,329.822 43.200,327.600 43.200 C 325.040 43.200,324.800 43.129,324.800 42.377 C 324.800 41.598,324.594 41.557,320.987 41.630 C 318.890 41.672,317.045 41.564,316.887 41.389 C 316.729 41.215,316.825 41.201,317.100 41.359 C 317.409 41.537,317.600 41.409,317.600 41.024 C 317.600 40.474,316.334 40.400,307.000 40.400 C 296.709 40.400,296.400 40.377,296.400 39.609 C 296.400 38.829,296.005 38.819,265.400 38.805 L 234.400 38.791 234.400 221.795 C 234.400 343.532,234.534 404.800,234.800 404.800 C 235.020 404.800,235.203 404.575,235.206 404.300 C 235.210 403.967,235.342 404.000,235.600 404.400 C 235.813 404.730,235.991 407.835,235.994 411.300 C 236.000 417.331,236.034 417.600,236.800 417.600 C 237.541 417.600,237.600 417.867,237.600 421.200 C 237.600 424.133,237.711 424.800,238.200 424.800 C 238.676 424.800,238.800 425.378,238.800 427.600 C 238.800 430.133,238.876 430.400,239.600 430.400 C 240.248 430.400,240.400 430.667,240.400 431.800 C 240.400 432.778,240.581 433.200,241.000 433.200 C 241.417 433.200,241.600 433.619,241.600 434.572 C 241.600 435.688,241.768 435.970,242.500 436.082 C 242.995 436.157,243.355 436.440,243.300 436.709 C 243.245 436.979,243.470 437.200,243.800 437.200 C 244.133 437.200,244.400 437.556,244.400 438.000 C 244.400 438.533,244.667 438.800,245.200 438.800 C 245.644 438.800,246.000 439.067,246.000 439.400 C 246.000 439.730,246.270 440.000,246.600 440.000 C 246.933 440.000,247.200 440.356,247.200 440.800 C 247.200 441.333,247.467 441.600,248.000 441.600 C 248.444 441.600,248.800 441.867,248.800 442.200 C 248.800 442.530,249.070 442.800,249.400 442.800 C 249.733 442.800,250.000 443.156,250.000 443.600 C 250.000 444.248,250.267 444.400,251.400 444.400 C 252.378 444.400,252.800 444.581,252.800 445.000 C 252.800 445.419,253.222 445.600,254.200 445.600 C 255.333 445.600,255.600 445.752,255.600 446.400 C 255.600 447.048,255.867 447.200,257.000 447.200 C 257.978 447.200,258.400 447.381,258.400 447.800 C 258.400 448.261,258.911 448.400,260.600 448.400 C 262.533 448.400,262.800 448.497,262.800 449.200 C 262.800 449.924,263.067 450.000,265.600 450.000 C 267.822 450.000,268.400 450.124,268.400 450.600 C 268.400 451.113,269.533 451.200,276.200 451.200 C 283.789 451.200,284.000 451.222,284.000 452.018 C 284.000 452.467,284.225 452.806,284.500 452.770 C 284.775 452.734,288.195 452.727,292.100 452.753 L 299.200 452.800 299.200 458.400 L 299.200 464.000 202.000 464.000 L 104.800 464.000 104.800 458.400 L 104.800 452.800 112.600 452.800 C 120.133 452.800,120.400 452.773,120.400 452.000 C 120.400 451.227,120.667 451.200,128.247 451.200 C 135.523 451.200,136.080 451.149,135.909 450.500 C 135.744 449.872,136.026 449.814,138.663 449.932 C 141.413 450.055,141.600 450.010,141.600 449.232 C 141.600 448.500,141.841 448.400,143.600 448.400 C 145.111 448.400,145.600 448.253,145.600 447.800 C 145.600 447.381,146.022 447.200,147.000 447.200 C 148.133 447.200,148.400 447.048,148.400 446.400 C 148.400 445.733,148.667 445.600,150.000 445.600 C 151.156 445.600,151.600 445.433,151.600 445.000 C 151.600 444.670,151.870 444.400,152.200 444.400 C 152.533 444.400,152.800 444.044,152.800 443.600 C 152.800 442.960,153.067 442.800,154.133 442.800 C 155.348 442.800,155.467 442.693,155.467 441.600 C 155.467 440.867,155.259 440.400,154.933 440.400 C 154.640 440.400,154.400 440.670,154.400 441.000 C 154.400 441.419,153.978 441.600,153.000 441.600 C 151.867 441.600,151.600 441.752,151.600 442.400 C 151.600 442.933,151.333 443.200,150.800 443.200 C 150.356 443.200,150.000 443.467,150.000 443.800 C 150.000 444.219,149.578 444.400,148.600 444.400 C 147.467 444.400,147.200 444.552,147.200 445.200 C 147.200 445.848,146.933 446.000,145.800 446.000 C 144.822 446.000,144.400 446.181,144.400 446.600 C 144.400 447.053,143.911 447.200,142.400 447.200 C 140.667 447.200,140.400 447.307,140.400 448.000 C 140.400 448.729,140.133 448.800,137.400 448.800 C 135.000 448.800,134.400 448.920,134.400 449.400 C 134.400 449.912,133.289 450.000,126.800 450.000 C 119.467 450.000,119.200 450.028,119.200 450.800 C 119.200 451.573,118.933 451.600,111.400 451.600 L 103.600 451.600 103.600 458.600 L 103.600 465.600 202.200 465.600 L 300.800 465.600 300.800 458.600 L 300.800 451.600 293.000 451.600 C 285.467 451.600,285.200 451.573,285.200 450.800 C 285.200 450.027,284.933 450.000,277.400 450.000 C 270.733 450.000,269.600 449.913,269.600 449.400 C 269.600 448.924,269.022 448.800,266.800 448.800 C 264.267 448.800,264.000 448.724,264.000 448.000 C 264.000 447.307,263.733 447.200,262.000 447.200 C 260.431 447.200,260.000 447.062,260.000 446.558 C 260.000 446.055,259.669 445.948,258.474 446.062 C 257.074 446.195,256.962 446.132,257.121 445.304 C 257.274 444.500,257.133 444.400,255.847 444.400 C 254.785 444.400,254.400 444.229,254.400 443.758 C 254.400 443.255,254.069 443.148,252.874 443.262 C 251.459 443.396,251.361 443.339,251.527 442.469 C 251.679 441.673,251.563 441.552,250.753 441.666 C 250.029 441.768,249.828 441.632,249.918 441.100 C 249.998 440.623,249.774 440.400,249.218 440.400 C 248.661 440.400,248.400 440.139,248.400 439.582 C 248.400 439.026,248.177 438.802,247.700 438.882 C 247.168 438.972,247.032 438.771,247.134 438.047 C 247.250 437.227,247.132 437.120,246.289 437.281 C 245.468 437.438,245.343 437.339,245.519 436.667 C 245.682 436.045,245.580 435.922,245.064 436.120 C 244.551 436.317,244.400 436.140,244.400 435.341 C 244.400 434.483,244.246 434.336,243.496 434.479 C 242.668 434.638,242.605 434.526,242.738 433.126 C 242.852 431.931,242.745 431.600,242.242 431.600 C 241.775 431.600,241.600 431.218,241.600 430.200 C 241.600 429.067,241.448 428.800,240.800 428.800 C 240.076 428.800,240.000 428.533,240.000 426.000 C 240.000 423.778,239.876 423.200,239.400 423.200 C 238.914 423.200,238.800 422.556,238.800 419.800 C 238.800 416.667,238.737 416.400,238.000 416.400 C 237.233 416.400,237.200 416.133,237.200 410.000 C 237.200 404.578,237.108 403.600,236.600 403.600 C 236.068 403.600,236.000 383.133,236.000 221.800 L 236.000 40.000 265.600 40.000 C 294.933 40.000,295.200 40.007,295.200 40.800 C 295.200 41.580,295.467 41.600,305.800 41.600 C 315.168 41.600,316.400 41.673,316.400 42.228 C 316.400 42.762,316.933 42.837,319.926 42.728 C 323.397 42.602,323.450 42.614,323.280 43.500 C 323.113 44.365,323.217 44.400,325.953 44.400 C 328.217 44.400,328.800 44.523,328.800 45.000 C 328.800 45.461,329.311 45.600,331.000 45.600 C 332.933 45.600,333.200 45.697,333.200 46.400 C 333.200 47.066,333.467 47.200,334.787 47.200 C 336.034 47.200,336.325 47.329,336.145 47.800 C 335.966 48.265,336.239 48.400,337.357 48.400 C 338.533 48.400,338.800 48.548,338.800 49.200 C 338.800 49.848,339.067 50.000,340.200 50.000 C 341.333 50.000,341.600 50.152,341.600 50.800 C 341.600 51.448,341.867 51.600,343.000 51.600 C 343.978 51.600,344.400 51.781,344.400 52.200 C 344.400 52.533,344.756 52.800,345.200 52.800 C 345.733 52.800,346.000 53.067,346.000 53.600 C 346.000 54.248,346.267 54.400,347.400 54.400 C 348.378 54.400,348.800 54.581,348.800 55.000 C 348.800 55.330,349.070 55.600,349.400 55.600 C 349.733 55.600,350.000 55.956,350.000 56.400 C 350.000 56.933,350.267 57.200,350.800 57.200 C 351.244 57.200,351.600 57.467,351.600 57.800 C 351.600 58.130,351.870 58.400,352.200 58.400 C 352.533 58.400,352.800 58.756,352.800 59.200 C 352.800 59.848,353.067 60.000,354.200 60.000 C 355.498 60.000,355.600 60.090,355.600 61.237 C 355.600 62.138,355.817 62.532,356.400 62.684 C 356.840 62.799,357.200 63.142,357.200 63.447 C 357.200 63.751,357.470 64.000,357.800 64.000 C 358.133 64.000,358.400 64.356,358.400 64.800 C 358.400 65.333,358.667 65.600,359.200 65.600 C 359.644 65.600,360.000 65.867,360.000 66.200 C 360.000 66.530,360.270 66.800,360.600 66.800 C 360.933 66.800,361.200 67.156,361.200 67.600 C 361.200 68.133,361.467 68.400,362.000 68.400 C 362.648 68.400,362.800 68.667,362.800 69.800 C 362.800 70.778,362.981 71.200,363.400 71.200 C 363.730 71.200,364.000 71.470,364.000 71.800 C 364.000 72.133,364.356 72.400,364.800 72.400 C 365.558 72.400,365.830 73.156,365.630 74.700 C 365.594 74.975,365.843 75.200,366.182 75.200 C 366.533 75.200,366.800 75.545,366.800 76.000 C 366.800 76.533,367.067 76.800,367.600 76.800 C 368.248 76.800,368.400 77.067,368.400 78.200 C 368.400 79.333,368.552 79.600,369.200 79.600 C 369.893 79.600,370.000 79.867,370.000 81.600 C 370.000 83.111,370.147 83.600,370.600 83.600 C 371.061 83.600,371.200 84.111,371.200 85.800 C 371.200 87.733,371.297 88.000,372.000 88.000 C 372.703 88.000,372.800 88.267,372.800 90.200 C 372.800 91.889,372.939 92.400,373.400 92.400 C 373.877 92.400,374.000 92.983,374.000 95.247 C 374.000 97.983,374.035 98.087,374.900 97.920 C 375.786 97.750,375.798 97.803,375.672 101.274 C 375.563 104.267,375.638 104.800,376.172 104.800 C 376.703 104.800,376.800 105.449,376.800 109.000 C 376.800 112.933,376.851 113.200,377.600 113.200 C 378.303 113.200,378.400 113.467,378.400 115.400 L 378.400 117.600 386.000 117.600 L 393.600 117.600 393.600 102.800 C 393.600 89.911,393.523 88.000,393.000 88.000 C 392.473 88.000,392.400 84.774,392.400 61.363 C 392.400 35.062,392.390 34.722,391.600 34.516 C 390.896 34.332,390.223 15.511,390.770 11.300 C 390.822 10.901,353.160 10.800,203.618 10.800 L 16.400 10.800 16.400 17.000 M54.400 53.576 C 54.400 54.048,53.620 54.553,53.333 54.267 C 53.047 53.980,53.552 53.200,54.024 53.200 C 54.231 53.200,54.400 53.369,54.400 53.576 M51.600 56.376 C 51.600 56.848,50.820 57.353,50.533 57.067 C 50.247 56.780,50.752 56.000,51.224 56.000 C 51.431 56.000,51.600 56.169,51.600 56.376 " stroke="none" fill="#1c1c1c" fill-rule="evenodd"></path><path id="path1" d="M17.519 18.300 C 17.634 24.621,17.615 24.800,16.819 24.800 C 16.010 24.800,16.000 24.965,16.000 38.200 C 16.000 49.844,15.921 51.600,15.400 51.600 C 14.879 51.600,14.800 53.333,14.800 64.800 C 14.800 77.733,14.784 78.000,14.000 78.000 C 13.216 78.000,13.200 78.267,13.200 91.400 C 13.200 103.044,13.121 104.800,12.600 104.800 C 12.094 104.800,12.000 105.711,12.000 110.600 L 12.000 116.400 18.400 116.400 L 24.800 116.400 24.800 113.600 C 24.800 111.573,24.938 110.828,25.300 110.900 C 25.675 110.975,25.828 109.720,25.912 105.900 C 26.017 101.130,26.075 100.800,26.812 100.800 C 27.538 100.800,27.600 100.515,27.600 97.200 C 27.600 94.533,27.730 93.626,28.100 93.700 C 28.417 93.763,28.647 93.219,28.729 92.217 C 28.811 91.216,29.141 90.436,29.629 90.095 C 30.230 89.674,30.400 89.074,30.400 87.377 C 30.400 85.709,30.540 85.200,31.000 85.200 C 31.453 85.200,31.600 84.711,31.600 83.200 C 31.600 82.100,31.780 81.200,32.000 81.200 C 32.220 81.200,32.403 81.425,32.406 81.700 C 32.410 82.033,32.542 82.000,32.800 81.600 C 33.013 81.270,33.191 80.415,33.194 79.700 C 33.198 78.814,33.391 78.400,33.800 78.400 C 34.219 78.400,34.400 77.978,34.400 77.000 C 34.400 75.867,34.552 75.600,35.200 75.600 C 35.848 75.600,36.000 75.333,36.000 74.200 C 36.000 73.067,36.152 72.800,36.800 72.800 C 37.448 72.800,37.600 72.533,37.600 71.400 C 37.600 70.422,37.781 70.000,38.200 70.000 C 38.533 70.000,38.800 69.644,38.800 69.200 C 38.800 68.667,39.067 68.400,39.600 68.400 C 40.338 68.400,40.696 67.298,40.430 65.849 C 40.395 65.656,40.733 65.594,41.183 65.711 C 41.632 65.829,42.117 65.734,42.261 65.501 C 42.416 65.251,42.333 65.194,42.062 65.362 C 41.772 65.541,41.600 65.351,41.600 64.851 C 41.600 64.334,41.914 64.008,42.500 63.918 C 43.003 63.842,43.348 63.542,43.283 63.239 C 43.207 62.886,43.427 62.766,43.917 62.894 C 44.527 63.054,44.634 62.913,44.487 62.145 C 44.344 61.392,44.479 61.200,45.153 61.200 C 45.655 61.200,46.000 60.945,46.000 60.573 C 46.000 60.143,46.235 60.021,46.746 60.183 C 47.369 60.381,47.461 60.252,47.300 59.410 C 47.143 58.587,47.264 58.400,47.953 58.400 C 48.439 58.400,48.800 58.144,48.800 57.800 C 48.800 57.470,49.070 57.200,49.400 57.200 C 49.733 57.200,50.000 56.844,50.000 56.400 C 50.000 55.867,50.267 55.600,50.800 55.600 C 51.244 55.600,51.600 55.333,51.600 55.000 C 51.600 54.670,51.870 54.400,52.200 54.400 C 52.533 54.400,52.800 54.044,52.800 53.600 C 52.800 53.067,53.067 52.800,53.600 52.800 C 54.044 52.800,54.400 52.533,54.400 52.200 C 54.400 51.870,54.670 51.600,55.000 51.600 C 55.333 51.600,55.600 51.244,55.600 50.800 C 55.600 50.152,55.867 50.000,57.000 50.000 C 57.978 50.000,58.400 49.819,58.400 49.400 C 58.400 48.673,59.054 48.604,59.335 49.300 C 59.496 49.700,59.543 49.700,59.568 49.300 C 59.586 49.025,59.960 48.800,60.400 48.800 C 60.948 48.800,61.200 48.533,61.200 47.953 C 61.200 47.264,61.387 47.143,62.210 47.300 C 63.052 47.461,63.181 47.369,62.983 46.746 C 62.773 46.085,62.977 46.000,64.773 46.000 C 66.533 46.000,66.800 45.895,66.800 45.200 C 66.800 44.533,67.067 44.400,68.400 44.400 C 69.556 44.400,70.000 44.233,70.000 43.800 C 70.000 43.324,70.578 43.200,72.800 43.200 C 75.333 43.200,75.600 43.124,75.600 42.400 C 75.600 41.651,75.867 41.600,79.800 41.600 C 83.267 41.600,84.000 41.495,84.000 41.000 C 84.000 40.477,85.911 40.400,98.800 40.400 C 113.299 40.400,113.600 40.384,113.600 39.606 C 113.600 38.820,113.931 38.811,141.600 38.811 L 169.600 38.811 169.600 222.418 C 169.600 385.255,169.532 406.051,169.000 406.255 C 168.503 406.446,168.400 407.539,168.400 412.643 C 168.400 418.533,168.365 418.800,167.600 418.800 C 166.894 418.800,166.799 419.071,166.787 421.100 C 166.780 422.485,166.541 423.709,166.187 424.176 C 165.860 424.609,165.600 425.804,165.600 426.876 C 165.600 428.533,165.489 428.800,164.800 428.800 C 164.036 428.800,163.676 430.528,163.979 432.740 C 164.020 433.037,163.882 433.174,163.672 433.045 C 163.187 432.745,162.307 433.772,162.703 434.175 C 162.867 434.341,162.640 434.414,162.200 434.338 C 161.534 434.223,161.379 434.451,161.276 435.700 C 161.195 436.681,160.953 437.200,160.576 437.200 C 160.259 437.200,160.000 437.560,160.000 438.000 C 160.000 438.529,159.733 438.800,159.213 438.800 C 158.643 438.800,158.488 438.606,158.650 438.100 C 158.840 437.510,158.808 437.494,158.447 438.000 C 158.211 438.330,158.116 438.915,158.236 439.300 C 158.380 439.762,158.240 440.000,157.827 440.000 C 157.467 440.000,157.200 440.340,157.200 440.800 C 157.200 441.329,156.933 441.600,156.413 441.600 C 155.843 441.600,155.688 441.406,155.850 440.900 C 156.040 440.310,156.008 440.294,155.647 440.800 C 155.411 441.130,155.316 441.715,155.436 442.100 C 155.615 442.677,155.402 442.800,154.227 442.800 C 153.067 442.800,152.800 442.950,152.800 443.600 C 152.800 444.044,152.533 444.400,152.200 444.400 C 151.870 444.400,151.600 444.670,151.600 445.000 C 151.600 445.433,151.156 445.600,150.000 445.600 C 148.667 445.600,148.400 445.733,148.400 446.400 C 148.400 447.048,148.133 447.200,147.000 447.200 C 146.022 447.200,145.600 447.381,145.600 447.800 C 145.600 448.253,145.111 448.400,143.600 448.400 C 141.841 448.400,141.600 448.500,141.600 449.232 C 141.600 450.010,141.413 450.055,138.663 449.932 C 136.026 449.814,135.744 449.872,135.909 450.500 C 136.080 451.149,135.523 451.200,128.247 451.200 C 120.667 451.200,120.400 451.227,120.400 452.000 C 120.400 452.773,120.133 452.800,112.600 452.800 L 104.800 452.800 104.800 458.400 L 104.800 464.000 202.000 464.000 L 299.200 464.000 299.200 458.400 L 299.200 452.800 292.100 452.753 C 288.195 452.727,284.775 452.734,284.500 452.770 C 284.225 452.806,284.000 452.467,284.000 452.018 C 284.000 451.222,283.789 451.200,276.200 451.200 C 269.533 451.200,268.400 451.113,268.400 450.600 C 268.400 450.124,267.822 450.000,265.600 450.000 C 263.067 450.000,262.800 449.924,262.800 449.200 C 262.800 448.497,262.533 448.400,260.600 448.400 C 258.911 448.400,258.400 448.261,258.400 447.800 C 258.400 447.381,257.978 447.200,257.000 447.200 C 255.867 447.200,255.600 447.048,255.600 446.400 C 255.600 445.752,255.333 445.600,254.200 445.600 C 253.222 445.600,252.800 445.419,252.800 445.000 C 252.800 444.581,252.378 444.400,251.400 444.400 C 250.267 444.400,250.000 444.248,250.000 443.600 C 250.000 443.156,249.733 442.800,249.400 442.800 C 249.070 442.800,248.800 442.530,248.800 442.200 C 248.800 441.867,248.444 441.600,248.000 441.600 C 247.467 441.600,247.200 441.333,247.200 440.800 C 247.200 440.356,246.933 440.000,246.600 440.000 C 246.270 440.000,246.000 439.730,246.000 439.400 C 246.000 439.067,245.644 438.800,245.200 438.800 C 244.667 438.800,244.400 438.533,244.400 438.000 C 244.400 437.556,244.133 437.200,243.800 437.200 C 243.470 437.200,243.245 436.979,243.300 436.709 C 243.355 436.440,242.995 436.157,242.500 436.082 C 241.768 435.970,241.600 435.688,241.600 434.572 C 241.600 433.619,241.417 433.200,241.000 433.200 C 240.581 433.200,240.400 432.778,240.400 431.800 C 240.400 430.667,240.248 430.400,239.600 430.400 C 238.876 430.400,238.800 430.133,238.800 427.600 C 238.800 425.378,238.676 424.800,238.200 424.800 C 237.711 424.800,237.600 424.133,237.600 421.200 C 237.600 417.867,237.541 417.600,236.800 417.600 C 236.034 417.600,236.000 417.331,235.994 411.300 C 235.991 407.835,235.813 404.730,235.600 404.400 C 235.342 404.000,235.210 403.967,235.206 404.300 C 235.203 404.575,235.020 404.800,234.800 404.800 C 234.534 404.800,234.400 343.532,234.400 221.795 L 234.400 38.791 265.400 38.805 C 296.005 38.819,296.400 38.829,296.400 39.609 C 296.400 40.377,296.709 40.400,307.000 40.400 C 316.334 40.400,317.600 40.474,317.600 41.024 C 317.600 41.409,317.409 41.537,317.100 41.359 C 316.825 41.201,316.729 41.215,316.887 41.389 C 317.045 41.564,318.890 41.672,320.987 41.630 C 324.594 41.557,324.800 41.598,324.800 42.377 C 324.800 43.129,325.040 43.200,327.600 43.200 C 329.822 43.200,330.400 43.324,330.400 43.800 C 330.400 44.246,330.871 44.400,332.237 44.400 C 333.738 44.400,334.113 44.546,334.284 45.200 C 334.441 45.801,334.830 46.000,335.847 46.000 C 336.783 46.000,337.200 46.185,337.200 46.600 C 337.200 47.004,337.604 47.200,338.437 47.200 C 339.338 47.200,339.732 47.417,339.884 48.000 C 340.041 48.601,340.430 48.800,341.447 48.800 C 342.383 48.800,342.800 48.985,342.800 49.400 C 342.800 49.819,343.222 50.000,344.200 50.000 C 345.333 50.000,345.600 50.152,345.600 50.800 C 345.600 51.342,345.867 51.600,346.427 51.600 C 347.037 51.600,347.195 51.786,347.028 52.310 C 346.833 52.925,347.018 53.000,348.401 52.868 C 349.793 52.736,350.000 52.822,350.000 53.531 C 350.000 54.372,352.093 56.174,352.545 55.722 C 352.685 55.581,352.800 55.846,352.800 56.311 C 352.800 57.414,354.247 58.400,355.865 58.400 C 357.063 58.400,357.160 58.503,357.276 59.900 C 357.353 60.838,357.587 61.363,357.900 61.300 C 358.175 61.245,358.400 61.560,358.400 62.000 C 358.400 62.554,358.667 62.800,359.267 62.800 C 359.743 62.800,360.019 62.915,359.878 63.055 C 359.418 63.515,361.232 65.600,362.094 65.600 C 362.556 65.600,362.819 65.715,362.678 65.855 C 362.538 65.995,362.778 66.608,363.212 67.217 C 363.645 67.825,364.000 68.701,364.000 69.162 C 364.000 69.749,364.254 70.000,364.847 70.000 C 365.502 70.000,365.645 70.184,365.480 70.816 C 365.307 71.478,365.412 71.587,366.033 71.389 C 366.691 71.181,366.800 71.349,366.800 72.573 C 366.800 73.733,366.950 74.000,367.600 74.000 C 368.133 74.000,368.400 74.267,368.400 74.800 C 368.400 75.244,368.667 75.600,369.000 75.600 C 369.415 75.600,369.600 76.017,369.600 76.953 C 369.600 77.970,369.799 78.359,370.400 78.516 C 371.050 78.686,371.200 79.062,371.200 80.520 C 371.200 81.746,371.390 82.387,371.800 82.545 C 372.221 82.706,372.400 83.362,372.400 84.741 C 372.400 86.370,372.537 86.742,373.200 86.916 C 373.854 87.087,374.000 87.462,374.000 88.963 C 374.000 90.329,374.154 90.800,374.600 90.800 C 375.327 90.800,375.396 91.454,374.700 91.735 C 374.300 91.896,374.300 91.943,374.700 91.968 C 375.036 91.990,375.200 92.724,375.200 94.200 C 375.200 96.154,375.292 96.400,376.023 96.400 C 376.802 96.400,376.843 96.606,376.770 100.213 C 376.728 102.310,376.836 104.155,377.011 104.313 C 377.185 104.471,377.199 104.375,377.041 104.100 C 376.863 103.791,376.991 103.600,377.376 103.600 C 377.902 103.600,378.000 104.263,378.000 107.800 C 378.000 111.733,378.051 112.000,378.800 112.000 C 379.503 112.000,379.600 112.267,379.600 114.200 L 379.600 116.400 386.000 116.400 L 392.400 116.400 392.400 103.000 C 392.400 89.867,392.384 89.600,391.600 89.600 C 390.808 89.600,390.800 89.333,390.800 62.843 C 390.800 39.428,390.725 36.057,390.200 35.855 C 389.685 35.658,389.600 33.944,389.600 23.813 L 389.600 12.002 203.500 11.901 L 17.400 11.800 17.519 18.300 M53.384 53.627 C 53.239 53.861,53.216 54.149,53.333 54.267 C 53.620 54.553,54.400 54.048,54.400 53.576 C 54.400 53.065,53.709 53.099,53.384 53.627 M50.584 56.427 C 50.439 56.661,50.416 56.949,50.533 57.067 C 50.820 57.353,51.600 56.848,51.600 56.376 C 51.600 55.865,50.909 55.899,50.584 56.427 " stroke="none" fill="#201c1c" fill-rule="evenodd"></path><path id="path2" d="M17.519 18.300 C 17.634 24.621,17.615 24.800,16.819 24.800 C 16.010 24.800,16.000 24.965,16.000 38.200 C 16.000 49.844,15.921 51.600,15.400 51.600 C 14.879 51.600,14.800 53.333,14.800 64.800 C 14.800 77.733,14.784 78.000,14.000 78.000 C 13.216 78.000,13.200 78.267,13.200 91.400 C 13.200 103.044,13.121 104.800,12.600 104.800 C 12.094 104.800,12.000 105.711,12.000 110.600 L 12.000 116.400 18.400 116.400 L 24.800 116.400 24.800 113.600 C 24.800 111.573,24.938 110.828,25.300 110.900 C 25.675 110.975,25.828 109.720,25.912 105.900 C 26.017 101.130,26.075 100.800,26.812 100.800 C 27.538 100.800,27.600 100.515,27.600 97.200 C 27.600 94.533,27.730 93.626,28.100 93.700 C 28.417 93.763,28.647 93.219,28.729 92.217 C 28.811 91.216,29.141 90.436,29.629 90.095 C 30.230 89.674,30.400 89.074,30.400 87.377 C 30.400 85.709,30.540 85.200,31.000 85.200 C 31.453 85.200,31.600 84.711,31.600 83.200 C 31.600 82.100,31.780 81.200,32.000 81.200 C 32.220 81.200,32.403 81.425,32.406 81.700 C 32.410 82.033,32.542 82.000,32.800 81.600 C 33.013 81.270,33.191 80.415,33.194 79.700 C 33.198 78.814,33.391 78.400,33.800 78.400 C 34.219 78.400,34.400 77.978,34.400 77.000 C 34.400 75.867,34.552 75.600,35.200 75.600 C 35.848 75.600,36.000 75.333,36.000 74.200 C 36.000 73.067,36.152 72.800,36.800 72.800 C 37.448 72.800,37.600 72.533,37.600 71.400 C 37.600 70.422,37.781 70.000,38.200 70.000 C 38.533 70.000,38.800 69.644,38.800 69.200 C 38.800 68.667,39.067 68.400,39.600 68.400 C 40.338 68.400,40.696 67.298,40.430 65.849 C 40.395 65.656,40.733 65.594,41.183 65.711 C 41.632 65.829,42.117 65.734,42.261 65.501 C 42.416 65.251,42.333 65.194,42.062 65.362 C 41.772 65.541,41.600 65.351,41.600 64.851 C 41.600 64.334,41.914 64.008,42.500 63.918 C 43.003 63.842,43.348 63.542,43.283 63.239 C 43.207 62.886,43.427 62.766,43.917 62.894 C 44.527 63.054,44.634 62.913,44.487 62.145 C 44.344 61.392,44.479 61.200,45.153 61.200 C 45.655 61.200,46.000 60.945,46.000 60.573 C 46.000 60.143,46.235 60.021,46.746 60.183 C 47.369 60.381,47.461 60.252,47.300 59.410 C 47.143 58.587,47.264 58.400,47.953 58.400 C 48.439 58.400,48.800 58.144,48.800 57.800 C 48.800 57.470,49.070 57.200,49.400 57.200 C 49.733 57.200,50.000 56.844,50.000 56.400 C 50.000 55.867,50.267 55.600,50.800 55.600 C 51.244 55.600,51.600 55.333,51.600 55.000 C 51.600 54.670,51.870 54.400,52.200 54.400 C 52.533 54.400,52.800 54.044,52.800 53.600 C 52.800 53.067,53.067 52.800,53.600 52.800 C 54.044 52.800,54.400 52.533,54.400 52.200 C 54.400 51.870,54.670 51.600,55.000 51.600 C 55.333 51.600,55.600 51.244,55.600 50.800 C 55.600 50.152,55.867 50.000,57.000 50.000 C 57.978 50.000,58.400 49.819,58.400 49.400 C 58.400 48.673,59.054 48.604,59.335 49.300 C 59.496 49.700,59.543 49.700,59.568 49.300 C 59.586 49.025,59.960 48.800,60.400 48.800 C 60.948 48.800,61.200 48.533,61.200 47.953 C 61.200 47.264,61.387 47.143,62.210 47.300 C 63.052 47.461,63.181 47.369,62.983 46.746 C 62.773 46.085,62.977 46.000,64.773 46.000 C 66.533 46.000,66.800 45.895,66.800 45.200 C 66.800 44.533,67.067 44.400,68.400 44.400 C 69.556 44.400,70.000 44.233,70.000 43.800 C 70.000 43.324,70.578 43.200,72.800 43.200 C 75.333 43.200,75.600 43.124,75.600 42.400 C 75.600 41.651,75.867 41.600,79.800 41.600 C 83.267 41.600,84.000 41.495,84.000 41.000 C 84.000 40.477,85.911 40.400,98.800 40.400 C 113.299 40.400,113.600 40.384,113.600 39.606 C 113.600 38.820,113.931 38.811,141.600 38.811 L 169.600 38.811 169.600 222.418 C 169.600 385.255,169.532 406.051,169.000 406.255 C 168.503 406.446,168.400 407.539,168.400 412.643 C 168.400 418.533,168.365 418.800,167.600 418.800 C 166.894 418.800,166.799 419.071,166.787 421.100 C 166.780 422.485,166.541 423.709,166.187 424.176 C 165.860 424.609,165.600 425.804,165.600 426.876 C 165.600 428.533,165.489 428.800,164.800 428.800 C 164.036 428.800,163.676 430.528,163.979 432.740 C 164.020 433.037,163.882 433.174,163.672 433.045 C 163.187 432.745,162.307 433.772,162.703 434.175 C 162.867 434.341,162.640 434.414,162.200 434.338 C 161.534 434.223,161.379 434.451,161.276 435.700 C 161.195 436.681,160.953 437.200,160.576 437.200 C 160.259 437.200,160.000 437.560,160.000 438.000 C 160.000 438.529,159.733 438.800,159.213 438.800 C 158.643 438.800,158.488 438.606,158.650 438.100 C 158.840 437.510,158.808 437.494,158.447 438.000 C 158.211 438.330,158.116 438.915,158.236 439.300 C 158.380 439.762,158.240 440.000,157.827 440.000 C 157.467 440.000,157.200 440.340,157.200 440.800 C 157.200 441.329,156.933 441.600,156.413 441.600 C 155.843 441.600,155.688 441.406,155.850 440.900 C 156.040 440.310,156.008 440.294,155.647 440.800 C 155.411 441.130,155.316 441.715,155.436 442.100 C 155.615 442.677,155.402 442.800,154.227 442.800 C 153.067 442.800,152.800 442.950,152.800 443.600 C 152.800 444.044,152.533 444.400,152.200 444.400 C 151.870 444.400,151.600 444.670,151.600 445.000 C 151.600 445.433,151.156 445.600,150.000 445.600 C 148.667 445.600,148.400 445.733,148.400 446.400 C 148.400 447.048,148.133 447.200,147.000 447.200 C 146.022 447.200,145.600 447.381,145.600 447.800 C 145.600 448.253,145.111 448.400,143.600 448.400 C 141.841 448.400,141.600 448.500,141.600 449.232 C 141.600 450.010,141.413 450.055,138.663 449.932 C 136.026 449.814,135.744 449.872,135.909 450.500 C 136.080 451.149,135.523 451.200,128.247 451.200 C 120.667 451.200,120.400 451.227,120.400 452.000 C 120.400 452.773,120.133 452.800,112.600 452.800 L 104.800 452.800 104.800 458.400 L 104.800 464.000 202.000 464.000 L 299.200 464.000 299.200 458.400 L 299.200 452.800 292.100 452.753 C 288.195 452.727,284.775 452.734,284.500 452.770 C 284.225 452.806,284.000 452.467,284.000 452.018 C 284.000 451.222,283.789 451.200,276.200 451.200 C 269.533 451.200,268.400 451.113,268.400 450.600 C 268.400 450.124,267.822 450.000,265.600 450.000 C 263.067 450.000,262.800 449.924,262.800 449.200 C 262.800 448.497,262.533 448.400,260.600 448.400 C 258.911 448.400,258.400 448.261,258.400 447.800 C 258.400 447.381,257.978 447.200,257.000 447.200 C 255.867 447.200,255.600 447.048,255.600 446.400 C 255.600 445.752,255.333 445.600,254.200 445.600 C 253.222 445.600,252.800 445.419,252.800 445.000 C 252.800 444.581,252.378 444.400,251.400 444.400 C 250.267 444.400,250.000 444.248,250.000 443.600 C 250.000 443.156,249.733 442.800,249.400 442.800 C 249.070 442.800,248.800 442.530,248.800 442.200 C 248.800 441.867,248.444 441.600,248.000 441.600 C 247.467 441.600,247.200 441.333,247.200 440.800 C 247.200 440.356,246.933 440.000,246.600 440.000 C 246.270 440.000,246.000 439.730,246.000 439.400 C 246.000 439.067,245.644 438.800,245.200 438.800 C 244.667 438.800,244.400 438.533,244.400 438.000 C 244.400 437.556,244.133 437.200,243.800 437.200 C 243.470 437.200,243.245 436.979,243.300 436.709 C 243.355 436.440,242.995 436.157,242.500 436.082 C 241.768 435.970,241.600 435.688,241.600 434.572 C 241.600 433.619,241.417 433.200,241.000 433.200 C 240.581 433.200,240.400 432.778,240.400 431.800 C 240.400 430.667,240.248 430.400,239.600 430.400 C 238.876 430.400,238.800 430.133,238.800 427.600 C 238.800 425.378,238.676 424.800,238.200 424.800 C 237.711 424.800,237.600 424.133,237.600 421.200 C 237.600 417.867,237.541 417.600,236.800 417.600 C 236.034 417.600,236.000 417.331,235.994 411.300 C 235.991 407.835,235.813 404.730,235.600 404.400 C 235.342 404.000,235.210 403.967,235.206 404.300 C 235.203 404.575,235.020 404.800,234.800 404.800 C 234.534 404.800,234.400 343.532,234.400 221.795 L 234.400 38.791 265.400 38.805 C 296.005 38.819,296.400 38.829,296.400 39.609 C 296.400 40.377,296.709 40.400,307.000 40.400 C 316.334 40.400,317.600 40.474,317.600 41.024 C 317.600 41.409,317.409 41.537,317.100 41.359 C 316.825 41.201,316.729 41.215,316.887 41.389 C 317.045 41.564,318.890 41.672,320.987 41.630 C 324.594 41.557,324.800 41.598,324.800 42.377 C 324.800 43.129,325.040 43.200,327.600 43.200 C 329.822 43.200,330.400 43.324,330.400 43.800 C 330.400 44.246,330.871 44.400,332.237 44.400 C 333.738 44.400,334.113 44.546,334.284 45.200 C 334.441 45.801,334.830 46.000,335.847 46.000 C 336.783 46.000,337.200 46.185,337.200 46.600 C 337.200 47.004,337.604 47.200,338.437 47.200 C 339.338 47.200,339.732 47.417,339.884 48.000 C 340.041 48.601,340.430 48.800,341.447 48.800 C 342.383 48.800,342.800 48.985,342.800 49.400 C 342.800 49.819,343.222 50.000,344.200 50.000 C 345.333 50.000,345.600 50.152,345.600 50.800 C 345.600 51.342,345.867 51.600,346.427 51.600 C 347.037 51.600,347.195 51.786,347.028 52.310 C 346.833 52.925,347.018 53.000,348.401 52.868 C 349.793 52.736,350.000 52.822,350.000 53.531 C 350.000 54.372,352.093 56.174,352.545 55.722 C 352.685 55.581,352.800 55.846,352.800 56.311 C 352.800 57.414,354.247 58.400,355.865 58.400 C 357.063 58.400,357.160 58.503,357.276 59.900 C 357.353 60.838,357.587 61.363,357.900 61.300 C 358.175 61.245,358.400 61.560,358.400 62.000 C 358.400 62.554,358.667 62.800,359.267 62.800 C 359.743 62.800,360.019 62.915,359.878 63.055 C 359.418 63.515,361.232 65.600,362.094 65.600 C 362.556 65.600,362.819 65.715,362.678 65.855 C 362.538 65.995,362.778 66.608,363.212 67.217 C 363.645 67.825,364.000 68.701,364.000 69.162 C 364.000 69.749,364.254 70.000,364.847 70.000 C 365.502 70.000,365.645 70.184,365.480 70.816 C 365.307 71.478,365.412 71.587,366.033 71.389 C 366.691 71.181,366.800 71.349,366.800 72.573 C 366.800 73.733,366.950 74.000,367.600 74.000 C 368.133 74.000,368.400 74.267,368.400 74.800 C 368.400 75.244,368.667 75.600,369.000 75.600 C 369.415 75.600,369.600 76.017,369.600 76.953 C 369.600 77.970,369.799 78.359,370.400 78.516 C 371.050 78.686,371.200 79.062,371.200 80.520 C 371.200 81.746,371.390 82.387,371.800 82.545 C 372.221 82.706,372.400 83.362,372.400 84.741 C 372.400 86.370,372.537 86.742,373.200 86.916 C 373.854 87.087,374.000 87.462,374.000 88.963 C 374.000 90.329,374.154 90.800,374.600 90.800 C 375.327 90.800,375.396 91.454,374.700 91.735 C 374.300 91.896,374.300 91.943,374.700 91.968 C 375.036 91.990,375.200 92.724,375.200 94.200 C 375.200 96.154,375.292 96.400,376.023 96.400 C 376.802 96.400,376.843 96.606,376.770 100.213 C 376.728 102.310,376.836 104.155,377.011 104.313 C 377.185 104.471,377.199 104.375,377.041 104.100 C 376.863 103.791,376.991 103.600,377.376 103.600 C 377.902 103.600,378.000 104.263,378.000 107.800 C 378.000 111.733,378.051 112.000,378.800 112.000 C 379.503 112.000,379.600 112.267,379.600 114.200 L 379.600 116.400 386.000 116.400 L 392.400 116.400 392.400 103.000 C 392.400 89.867,392.384 89.600,391.600 89.600 C 390.808 89.600,390.800 89.333,390.800 62.843 C 390.800 39.428,390.725 36.057,390.200 35.855 C 389.685 35.658,389.600 33.944,389.600 23.813 L 389.600 12.002 203.500 11.901 L 17.400 11.800 17.519 18.300 M53.384 53.627 C 53.239 53.861,53.216 54.149,53.333 54.267 C 53.620 54.553,54.400 54.048,54.400 53.576 C 54.400 53.065,53.709 53.099,53.384 53.627 M50.584 56.427 C 50.439 56.661,50.416 56.949,50.533 57.067 C 50.820 57.353,51.600 56.848,51.600 56.376 C 51.600 55.865,50.909 55.899,50.584 56.427 " stroke="none" fill="#201c1c" fill-rule="evenodd"></path><path id="path3" d="M17.519 18.300 C 17.634 24.621,17.615 24.800,16.819 24.800 C 16.010 24.800,16.000 24.965,16.000 38.200 C 16.000 49.844,15.921 51.600,15.400 51.600 C 14.879 51.600,14.800 53.333,14.800 64.800 C 14.800 77.733,14.784 78.000,14.000 78.000 C 13.216 78.000,13.200 78.267,13.200 91.400 C 13.200 103.044,13.121 104.800,12.600 104.800 C 12.094 104.800,12.000 105.711,12.000 110.600 L 12.000 116.400 18.400 116.400 L 24.800 116.400 24.800 113.600 C 24.800 111.573,24.938 110.828,25.300 110.900 C 25.675 110.975,25.828 109.720,25.912 105.900 C 26.017 101.130,26.075 100.800,26.812 100.800 C 27.538 100.800,27.600 100.515,27.600 97.200 C 27.600 94.533,27.730 93.626,28.100 93.700 C 28.417 93.763,28.647 93.219,28.729 92.217 C 28.811 91.216,29.141 90.436,29.629 90.095 C 30.230 89.674,30.400 89.074,30.400 87.377 C 30.400 85.709,30.540 85.200,31.000 85.200 C 31.453 85.200,31.600 84.711,31.600 83.200 C 31.600 82.100,31.780 81.200,32.000 81.200 C 32.220 81.200,32.403 81.425,32.406 81.700 C 32.410 82.033,32.542 82.000,32.800 81.600 C 33.013 81.270,33.191 80.415,33.194 79.700 C 33.198 78.814,33.391 78.400,33.800 78.400 C 34.219 78.400,34.400 77.978,34.400 77.000 C 34.400 75.867,34.552 75.600,35.200 75.600 C 35.848 75.600,36.000 75.333,36.000 74.200 C 36.000 73.067,36.152 72.800,36.800 72.800 C 37.448 72.800,37.600 72.533,37.600 71.400 C 37.600 70.422,37.781 70.000,38.200 70.000 C 38.533 70.000,38.800 69.644,38.800 69.200 C 38.800 68.667,39.067 68.400,39.600 68.400 C 40.338 68.400,40.696 67.298,40.430 65.849 C 40.395 65.656,40.733 65.594,41.183 65.711 C 41.632 65.829,42.117 65.734,42.261 65.501 C 42.416 65.251,42.333 65.194,42.062 65.362 C 41.772 65.541,41.600 65.351,41.600 64.851 C 41.600 64.334,41.914 64.008,42.500 63.918 C 43.003 63.842,43.348 63.542,43.283 63.239 C 43.207 62.886,43.427 62.766,43.917 62.894 C 44.527 63.054,44.634 62.913,44.487 62.145 C 44.344 61.392,44.479 61.200,45.153 61.200 C 45.655 61.200,46.000 60.945,46.000 60.573 C 46.000 60.143,46.235 60.021,46.746 60.183 C 47.369 60.381,47.461 60.252,47.300 59.410 C 47.143 58.587,47.264 58.400,47.953 58.400 C 48.439 58.400,48.800 58.144,48.800 57.800 C 48.800 57.470,49.070 57.200,49.400 57.200 C 49.733 57.200,50.000 56.844,50.000 56.400 C 50.000 55.867,50.267 55.600,50.800 55.600 C 51.244 55.600,51.600 55.333,51.600 55.000 C 51.600 54.670,51.870 54.400,52.200 54.400 C 52.533 54.400,52.800 54.044,52.800 53.600 C 52.800 53.067,53.067 52.800,53.600 52.800 C 54.044 52.800,54.400 52.533,54.400 52.200 C 54.400 51.870,54.670 51.600,55.000 51.600 C 55.333 51.600,55.600 51.244,55.600 50.800 C 55.600 50.152,55.867 50.000,57.000 50.000 C 57.978 50.000,58.400 49.819,58.400 49.400 C 58.400 48.673,59.054 48.604,59.335 49.300 C 59.496 49.700,59.543 49.700,59.568 49.300 C 59.586 49.025,59.960 48.800,60.400 48.800 C 60.948 48.800,61.200 48.533,61.200 47.953 C 61.200 47.264,61.387 47.143,62.210 47.300 C 63.052 47.461,63.181 47.369,62.983 46.746 C 62.773 46.085,62.977 46.000,64.773 46.000 C 66.533 46.000,66.800 45.895,66.800 45.200 C 66.800 44.533,67.067 44.400,68.400 44.400 C 69.556 44.400,70.000 44.233,70.000 43.800 C 70.000 43.324,70.578 43.200,72.800 43.200 C 75.333 43.200,75.600 43.124,75.600 42.400 C 75.600 41.651,75.867 41.600,79.800 41.600 C 83.267 41.600,84.000 41.495,84.000 41.000 C 84.000 40.477,85.911 40.400,98.800 40.400 C 113.299 40.400,113.600 40.384,113.600 39.606 C 113.600 38.820,113.931 38.811,141.600 38.811 L 169.600 38.811 169.600 222.418 C 169.600 385.255,169.532 406.051,169.000 406.255 C 168.503 406.446,168.400 407.539,168.400 412.643 C 168.400 418.533,168.365 418.800,167.600 418.800 C 166.894 418.800,166.799 419.071,166.787 421.100 C 166.780 422.485,166.541 423.709,166.187 424.176 C 165.860 424.609,165.600 425.804,165.600 426.876 C 165.600 428.533,165.489 428.800,164.800 428.800 C 164.036 428.800,163.676 430.528,163.979 432.740 C 164.020 433.037,163.882 433.174,163.672 433.045 C 163.187 432.745,162.307 433.772,162.703 434.175 C 162.867 434.341,162.640 434.414,162.200 434.338 C 161.534 434.223,161.379 434.451,161.276 435.700 C 161.195 436.681,160.953 437.200,160.576 437.200 C 160.259 437.200,160.000 437.560,160.000 438.000 C 160.000 438.529,159.733 438.800,159.213 438.800 C 158.643 438.800,158.488 438.606,158.650 438.100 C 158.840 437.510,158.808 437.494,158.447 438.000 C 158.211 438.330,158.116 438.915,158.236 439.300 C 158.380 439.762,158.240 440.000,157.827 440.000 C 157.467 440.000,157.200 440.340,157.200 440.800 C 157.200 441.329,156.933 441.600,156.413 441.600 C 155.843 441.600,155.688 441.406,155.850 440.900 C 156.040 440.310,156.008 440.294,155.647 440.800 C 155.411 441.130,155.316 441.715,155.436 442.100 C 155.615 442.677,155.402 442.800,154.227 442.800 C 153.067 442.800,152.800 442.950,152.800 443.600 C 152.800 444.044,152.533 444.400,152.200 444.400 C 151.870 444.400,151.600 444.670,151.600 445.000 C 151.600 445.433,151.156 445.600,150.000 445.600 C 148.667 445.600,148.400 445.733,148.400 446.400 C 148.400 447.048,148.133 447.200,147.000 447.200 C 146.022 447.200,145.600 447.381,145.600 447.800 C 145.600 448.253,145.111 448.400,143.600 448.400 C 141.841 448.400,141.600 448.500,141.600 449.232 C 141.600 450.010,141.413 450.055,138.663 449.932 C 136.026 449.814,135.744 449.872,135.909 450.500 C 136.080 451.149,135.523 451.200,128.247 451.200 C 120.667 451.200,120.400 451.227,120.400 452.000 C 120.400 452.773,120.133 452.800,112.600 452.800 L 104.800 452.800 104.800 458.400 L 104.800 464.000 202.000 464.000 L 299.200 464.000 299.200 458.400 L 299.200 452.800 292.100 452.753 C 288.195 452.727,284.775 452.734,284.500 452.770 C 284.225 452.806,284.000 452.467,284.000 452.018 C 284.000 451.222,283.789 451.200,276.200 451.200 C 269.533 451.200,268.400 451.113,268.400 450.600 C 268.400 450.124,267.822 450.000,265.600 450.000 C 263.067 450.000,262.800 449.924,262.800 449.200 C 262.800 448.497,262.533 448.400,260.600 448.400 C 258.911 448.400,258.400 448.261,258.400 447.800 C 258.400 447.381,257.978 447.200,257.000 447.200 C 255.867 447.200,255.600 447.048,255.600 446.400 C 255.600 445.752,255.333 445.600,254.200 445.600 C 253.222 445.600,252.800 445.419,252.800 445.000 C 252.800 444.581,252.378 444.400,251.400 444.400 C 250.267 444.400,250.000 444.248,250.000 443.600 C 250.000 443.156,249.733 442.800,249.400 442.800 C 249.070 442.800,248.800 442.530,248.800 442.200 C 248.800 441.867,248.444 441.600,248.000 441.600 C 247.467 441.600,247.200 441.333,247.200 440.800 C 247.200 440.356,246.933 440.000,246.600 440.000 C 246.270 440.000,246.000 439.730,246.000 439.400 C 246.000 439.067,245.644 438.800,245.200 438.800 C 244.667 438.800,244.400 438.533,244.400 438.000 C 244.400 437.556,244.133 437.200,243.800 437.200 C 243.470 437.200,243.245 436.979,243.300 436.709 C 243.355 436.440,242.995 436.157,242.500 436.082 C 241.768 435.970,241.600 435.688,241.600 434.572 C 241.600 433.619,241.417 433.200,241.000 433.200 C 240.581 433.200,240.400 432.778,240.400 431.800 C 240.400 430.667,240.248 430.400,239.600 430.400 C 238.876 430.400,238.800 430.133,238.800 427.600 C 238.800 425.378,238.676 424.800,238.200 424.800 C 237.711 424.800,237.600 424.133,237.600 421.200 C 237.600 417.867,237.541 417.600,236.800 417.600 C 236.034 417.600,236.000 417.331,235.994 411.300 C 235.991 407.835,235.813 404.730,235.600 404.400 C 235.342 404.000,235.210 403.967,235.206 404.300 C 235.203 404.575,235.020 404.800,234.800 404.800 C 234.534 404.800,234.400 343.532,234.400 221.795 L 234.400 38.791 265.400 38.805 C 296.005 38.819,296.400 38.829,296.400 39.609 C 296.400 40.377,296.709 40.400,307.000 40.400 C 316.334 40.400,317.600 40.474,317.600 41.024 C 317.600 41.409,317.409 41.537,317.100 41.359 C 316.825 41.201,316.729 41.215,316.887 41.389 C 317.045 41.564,318.890 41.672,320.987 41.630 C 324.594 41.557,324.800 41.598,324.800 42.377 C 324.800 43.129,325.040 43.200,327.600 43.200 C 329.822 43.200,330.400 43.324,330.400 43.800 C 330.400 44.246,330.871 44.400,332.237 44.400 C 333.738 44.400,334.113 44.546,334.284 45.200 C 334.441 45.801,334.830 46.000,335.847 46.000 C 336.783 46.000,337.200 46.185,337.200 46.600 C 337.200 47.004,337.604 47.200,338.437 47.200 C 339.338 47.200,339.732 47.417,339.884 48.000 C 340.041 48.601,340.430 48.800,341.447 48.800 C 342.383 48.800,342.800 48.985,342.800 49.400 C 342.800 49.819,343.222 50.000,344.200 50.000 C 345.333 50.000,345.600 50.152,345.600 50.800 C 345.600 51.342,345.867 51.600,346.427 51.600 C 347.037 51.600,347.195 51.786,347.028 52.310 C 346.833 52.925,347.018 53.000,348.401 52.868 C 349.793 52.736,350.000 52.822,350.000 53.531 C 350.000 54.372,352.093 56.174,352.545 55.722 C 352.685 55.581,352.800 55.846,352.800 56.311 C 352.800 57.414,354.247 58.400,355.865 58.400 C 357.063 58.400,357.160 58.503,357.276 59.900 C 357.353 60.838,357.587 61.363,357.900 61.300 C 358.175 61.245,358.400 61.560,358.400 62.000 C 358.400 62.554,358.667 62.800,359.267 62.800 C 359.743 62.800,360.019 62.915,359.878 63.055 C 359.418 63.515,361.232 65.600,362.094 65.600 C 362.556 65.600,362.819 65.715,362.678 65.855 C 362.538 65.995,362.778 66.608,363.212 67.217 C 363.645 67.825,364.000 68.701,364.000 69.162 C 364.000 69.749,364.254 70.000,364.847 70.000 C 365.502 70.000,365.645 70.184,365.480 70.816 C 365.307 71.478,365.412 71.587,366.033 71.389 C 366.691 71.181,366.800 71.349,366.800 72.573 C 366.800 73.733,366.950 74.000,367.600 74.000 C 368.133 74.000,368.400 74.267,368.400 74.800 C 368.400 75.244,368.667 75.600,369.000 75.600 C 369.415 75.600,369.600 76.017,369.600 76.953 C 369.600 77.970,369.799 78.359,370.400 78.516 C 371.050 78.686,371.200 79.062,371.200 80.520 C 371.200 81.746,371.390 82.387,371.800 82.545 C 372.221 82.706,372.400 83.362,372.400 84.741 C 372.400 86.370,372.537 86.742,373.200 86.916 C 373.854 87.087,374.000 87.462,374.000 88.963 C 374.000 90.329,374.154 90.800,374.600 90.800 C 375.327 90.800,375.396 91.454,374.700 91.735 C 374.300 91.896,374.300 91.943,374.700 91.968 C 375.036 91.990,375.200 92.724,375.200 94.200 C 375.200 96.154,375.292 96.400,376.023 96.400 C 376.802 96.400,376.843 96.606,376.770 100.213 C 376.728 102.310,376.836 104.155,377.011 104.313 C 377.185 104.471,377.199 104.375,377.041 104.100 C 376.863 103.791,376.991 103.600,377.376 103.600 C 377.902 103.600,378.000 104.263,378.000 107.800 C 378.000 111.733,378.051 112.000,378.800 112.000 C 379.503 112.000,379.600 112.267,379.600 114.200 L 379.600 116.400 386.000 116.400 L 392.400 116.400 392.400 103.000 C 392.400 89.867,392.384 89.600,391.600 89.600 C 390.808 89.600,390.800 89.333,390.800 62.843 C 390.800 39.428,390.725 36.057,390.200 35.855 C 389.685 35.658,389.600 33.944,389.600 23.813 L 389.600 12.002 203.500 11.901 L 17.400 11.800 17.519 18.300 M53.384 53.627 C 53.239 53.861,53.216 54.149,53.333 54.267 C 53.620 54.553,54.400 54.048,54.400 53.576 C 54.400 53.065,53.709 53.099,53.384 53.627 M50.584 56.427 C 50.439 56.661,50.416 56.949,50.533 57.067 C 50.820 57.353,51.600 56.848,51.600 56.376 C 51.600 55.865,50.909 55.899,50.584 56.427 " stroke="none" fill="#201c1c" fill-rule="evenodd"></path><path id="path4" d="M17.519 18.300 C 17.634 24.621,17.615 24.800,16.819 24.800 C 16.010 24.800,16.000 24.965,16.000 38.200 C 16.000 49.844,15.921 51.600,15.400 51.600 C 14.879 51.600,14.800 53.333,14.800 64.800 C 14.800 77.733,14.784 78.000,14.000 78.000 C 13.216 78.000,13.200 78.267,13.200 91.400 C 13.200 103.044,13.121 104.800,12.600 104.800 C 12.094 104.800,12.000 105.711,12.000 110.600 L 12.000 116.400 18.400 116.400 L 24.800 116.400 24.800 113.600 C 24.800 111.573,24.938 110.828,25.300 110.900 C 25.675 110.975,25.828 109.720,25.912 105.900 C 26.017 101.130,26.075 100.800,26.812 100.800 C 27.538 100.800,27.600 100.515,27.600 97.200 C 27.600 94.533,27.730 93.626,28.100 93.700 C 28.417 93.763,28.647 93.219,28.729 92.217 C 28.811 91.216,29.141 90.436,29.629 90.095 C 30.230 89.674,30.400 89.074,30.400 87.377 C 30.400 85.709,30.540 85.200,31.000 85.200 C 31.453 85.200,31.600 84.711,31.600 83.200 C 31.600 82.100,31.780 81.200,32.000 81.200 C 32.220 81.200,32.403 81.425,32.406 81.700 C 32.410 82.033,32.542 82.000,32.800 81.600 C 33.013 81.270,33.191 80.415,33.194 79.700 C 33.198 78.814,33.391 78.400,33.800 78.400 C 34.219 78.400,34.400 77.978,34.400 77.000 C 34.400 75.867,34.552 75.600,35.200 75.600 C 35.848 75.600,36.000 75.333,36.000 74.200 C 36.000 73.067,36.152 72.800,36.800 72.800 C 37.448 72.800,37.600 72.533,37.600 71.400 C 37.600 70.422,37.781 70.000,38.200 70.000 C 38.533 70.000,38.800 69.644,38.800 69.200 C 38.800 68.667,39.067 68.400,39.600 68.400 C 40.338 68.400,40.696 67.298,40.430 65.849 C 40.395 65.656,40.733 65.594,41.183 65.711 C 41.632 65.829,42.117 65.734,42.261 65.501 C 42.416 65.251,42.333 65.194,42.062 65.362 C 41.772 65.541,41.600 65.351,41.600 64.851 C 41.600 64.334,41.914 64.008,42.500 63.918 C 43.003 63.842,43.348 63.542,43.283 63.239 C 43.207 62.886,43.427 62.766,43.917 62.894 C 44.527 63.054,44.634 62.913,44.487 62.145 C 44.344 61.392,44.479 61.200,45.153 61.200 C 45.655 61.200,46.000 60.945,46.000 60.573 C 46.000 60.143,46.235 60.021,46.746 60.183 C 47.369 60.381,47.461 60.252,47.300 59.410 C 47.143 58.587,47.264 58.400,47.953 58.400 C 48.439 58.400,48.800 58.144,48.800 57.800 C 48.800 57.470,49.070 57.200,49.400 57.200 C 49.733 57.200,50.000 56.844,50.000 56.400 C 50.000 55.867,50.267 55.600,50.800 55.600 C 51.244 55.600,51.600 55.333,51.600 55.000 C 51.600 54.670,51.870 54.400,52.200 54.400 C 52.533 54.400,52.800 54.044,52.800 53.600 C 52.800 53.067,53.067 52.800,53.600 52.800 C 54.044 52.800,54.400 52.533,54.400 52.200 C 54.400 51.870,54.670 51.600,55.000 51.600 C 55.333 51.600,55.600 51.244,55.600 50.800 C 55.600 50.152,55.867 50.000,57.000 50.000 C 57.978 50.000,58.400 49.819,58.400 49.400 C 58.400 48.673,59.054 48.604,59.335 49.300 C 59.496 49.700,59.543 49.700,59.568 49.300 C 59.586 49.025,59.960 48.800,60.400 48.800 C 60.948 48.800,61.200 48.533,61.200 47.953 C 61.200 47.264,61.387 47.143,62.210 47.300 C 63.052 47.461,63.181 47.369,62.983 46.746 C 62.773 46.085,62.977 46.000,64.773 46.000 C 66.533 46.000,66.800 45.895,66.800 45.200 C 66.800 44.533,67.067 44.400,68.400 44.400 C 69.556 44.400,70.000 44.233,70.000 43.800 C 70.000 43.324,70.578 43.200,72.800 43.200 C 75.333 43.200,75.600 43.124,75.600 42.400 C 75.600 41.651,75.867 41.600,79.800 41.600 C 83.267 41.600,84.000 41.495,84.000 41.000 C 84.000 40.477,85.911 40.400,98.800 40.400 C 113.299 40.400,113.600 40.384,113.600 39.606 C 113.600 38.820,113.931 38.811,141.600 38.811 L 169.600 38.811 169.600 222.418 C 169.600 385.255,169.532 406.051,169.000 406.255 C 168.503 406.446,168.400 407.539,168.400 412.643 C 168.400 418.533,168.365 418.800,167.600 418.800 C 166.894 418.800,166.799 419.071,166.787 421.100 C 166.780 422.485,166.541 423.709,166.187 424.176 C 165.860 424.609,165.600 425.804,165.600 426.876 C 165.600 428.533,165.489 428.800,164.800 428.800 C 164.036 428.800,163.676 430.528,163.979 432.740 C 164.020 433.037,163.882 433.174,163.672 433.045 C 163.187 432.745,162.307 433.772,162.703 434.175 C 162.867 434.341,162.640 434.414,162.200 434.338 C 161.534 434.223,161.379 434.451,161.276 435.700 C 161.195 436.681,160.953 437.200,160.576 437.200 C 160.259 437.200,160.000 437.560,160.000 438.000 C 160.000 438.529,159.733 438.800,159.213 438.800 C 158.643 438.800,158.488 438.606,158.650 438.100 C 158.840 437.510,158.808 437.494,158.447 438.000 C 158.211 438.330,158.116 438.915,158.236 439.300 C 158.380 439.762,158.240 440.000,157.827 440.000 C 157.467 440.000,157.200 440.340,157.200 440.800 C 157.200 441.329,156.933 441.600,156.413 441.600 C 155.843 441.600,155.688 441.406,155.850 440.900 C 156.040 440.310,156.008 440.294,155.647 440.800 C 155.411 441.130,155.316 441.715,155.436 442.100 C 155.615 442.677,155.402 442.800,154.227 442.800 C 153.067 442.800,152.800 442.950,152.800 443.600 C 152.800 444.044,152.533 444.400,152.200 444.400 C 151.870 444.400,151.600 444.670,151.600 445.000 C 151.600 445.433,151.156 445.600,150.000 445.600 C 148.667 445.600,148.400 445.733,148.400 446.400 C 148.400 447.048,148.133 447.200,147.000 447.200 C 146.022 447.200,145.600 447.381,145.600 447.800 C 145.600 448.253,145.111 448.400,143.600 448.400 C 141.841 448.400,141.600 448.500,141.600 449.232 C 141.600 450.010,141.413 450.055,138.663 449.932 C 136.026 449.814,135.744 449.872,135.909 450.500 C 136.080 451.149,135.523 451.200,128.247 451.200 C 120.667 451.200,120.400 451.227,120.400 452.000 C 120.400 452.773,120.133 452.800,112.600 452.800 L 104.800 452.800 104.800 458.400 L 104.800 464.000 202.000 464.000 L 299.200 464.000 299.200 458.400 L 299.200 452.800 292.100 452.753 C 288.195 452.727,284.775 452.734,284.500 452.770 C 284.225 452.806,284.000 452.467,284.000 452.018 C 284.000 451.222,283.789 451.200,276.200 451.200 C 269.533 451.200,268.400 451.113,268.400 450.600 C 268.400 450.124,267.822 450.000,265.600 450.000 C 263.067 450.000,262.800 449.924,262.800 449.200 C 262.800 448.497,262.533 448.400,260.600 448.400 C 258.911 448.400,258.400 448.261,258.400 447.800 C 258.400 447.381,257.978 447.200,257.000 447.200 C 255.867 447.200,255.600 447.048,255.600 446.400 C 255.600 445.752,255.333 445.600,254.200 445.600 C 253.222 445.600,252.800 445.419,252.800 445.000 C 252.800 444.581,252.378 444.400,251.400 444.400 C 250.267 444.400,250.000 444.248,250.000 443.600 C 250.000 443.156,249.733 442.800,249.400 442.800 C 249.070 442.800,248.800 442.530,248.800 442.200 C 248.800 441.867,248.444 441.600,248.000 441.600 C 247.467 441.600,247.200 441.333,247.200 440.800 C 247.200 440.356,246.933 440.000,246.600 440.000 C 246.270 440.000,246.000 439.730,246.000 439.400 C 246.000 439.067,245.644 438.800,245.200 438.800 C 244.667 438.800,244.400 438.533,244.400 438.000 C 244.400 437.556,244.133 437.200,243.800 437.200 C 243.470 437.200,243.245 436.979,243.300 436.709 C 243.355 436.440,242.995 436.157,242.500 436.082 C 241.768 435.970,241.600 435.688,241.600 434.572 C 241.600 433.619,241.417 433.200,241.000 433.200 C 240.581 433.200,240.400 432.778,240.400 431.800 C 240.400 430.667,240.248 430.400,239.600 430.400 C 238.876 430.400,238.800 430.133,238.800 427.600 C 238.800 425.378,238.676 424.800,238.200 424.800 C 237.711 424.800,237.600 424.133,237.600 421.200 C 237.600 417.867,237.541 417.600,236.800 417.600 C 236.034 417.600,236.000 417.331,235.994 411.300 C 235.991 407.835,235.813 404.730,235.600 404.400 C 235.342 404.000,235.210 403.967,235.206 404.300 C 235.203 404.575,235.020 404.800,234.800 404.800 C 234.534 404.800,234.400 343.532,234.400 221.795 L 234.400 38.791 265.400 38.805 C 296.005 38.819,296.400 38.829,296.400 39.609 C 296.400 40.377,296.709 40.400,307.000 40.400 C 316.334 40.400,317.600 40.474,317.600 41.024 C 317.600 41.409,317.409 41.537,317.100 41.359 C 316.825 41.201,316.729 41.215,316.887 41.389 C 317.045 41.564,318.890 41.672,320.987 41.630 C 324.594 41.557,324.800 41.598,324.800 42.377 C 324.800 43.129,325.040 43.200,327.600 43.200 C 329.822 43.200,330.400 43.324,330.400 43.800 C 330.400 44.246,330.871 44.400,332.237 44.400 C 333.738 44.400,334.113 44.546,334.284 45.200 C 334.441 45.801,334.830 46.000,335.847 46.000 C 336.783 46.000,337.200 46.185,337.200 46.600 C 337.200 47.004,337.604 47.200,338.437 47.200 C 339.338 47.200,339.732 47.417,339.884 48.000 C 340.041 48.601,340.430 48.800,341.447 48.800 C 342.383 48.800,342.800 48.985,342.800 49.400 C 342.800 49.819,343.222 50.000,344.200 50.000 C 345.333 50.000,345.600 50.152,345.600 50.800 C 345.600 51.342,345.867 51.600,346.427 51.600 C 347.037 51.600,347.195 51.786,347.028 52.310 C 346.833 52.925,347.018 53.000,348.401 52.868 C 349.793 52.736,350.000 52.822,350.000 53.531 C 350.000 54.372,352.093 56.174,352.545 55.722 C 352.685 55.581,352.800 55.846,352.800 56.311 C 352.800 57.414,354.247 58.400,355.865 58.400 C 357.063 58.400,357.160 58.503,357.276 59.900 C 357.353 60.838,357.587 61.363,357.900 61.300 C 358.175 61.245,358.400 61.560,358.400 62.000 C 358.400 62.554,358.667 62.800,359.267 62.800 C 359.743 62.800,360.019 62.915,359.878 63.055 C 359.418 63.515,361.232 65.600,362.094 65.600 C 362.556 65.600,362.819 65.715,362.678 65.855 C 362.538 65.995,362.778 66.608,363.212 67.217 C 363.645 67.825,364.000 68.701,364.000 69.162 C 364.000 69.749,364.254 70.000,364.847 70.000 C 365.502 70.000,365.645 70.184,365.480 70.816 C 365.307 71.478,365.412 71.587,366.033 71.389 C 366.691 71.181,366.800 71.349,366.800 72.573 C 366.800 73.733,366.950 74.000,367.600 74.000 C 368.133 74.000,368.400 74.267,368.400 74.800 C 368.400 75.244,368.667 75.600,369.000 75.600 C 369.415 75.600,369.600 76.017,369.600 76.953 C 369.600 77.970,369.799 78.359,370.400 78.516 C 371.050 78.686,371.200 79.062,371.200 80.520 C 371.200 81.746,371.390 82.387,371.800 82.545 C 372.221 82.706,372.400 83.362,372.400 84.741 C 372.400 86.370,372.537 86.742,373.200 86.916 C 373.854 87.087,374.000 87.462,374.000 88.963 C 374.000 90.329,374.154 90.800,374.600 90.800 C 375.327 90.800,375.396 91.454,374.700 91.735 C 374.300 91.896,374.300 91.943,374.700 91.968 C 375.036 91.990,375.200 92.724,375.200 94.200 C 375.200 96.154,375.292 96.400,376.023 96.400 C 376.802 96.400,376.843 96.606,376.770 100.213 C 376.728 102.310,376.836 104.155,377.011 104.313 C 377.185 104.471,377.199 104.375,377.041 104.100 C 376.863 103.791,376.991 103.600,377.376 103.600 C 377.902 103.600,378.000 104.263,378.000 107.800 C 378.000 111.733,378.051 112.000,378.800 112.000 C 379.503 112.000,379.600 112.267,379.600 114.200 L 379.600 116.400 386.000 116.400 L 392.400 116.400 392.400 103.000 C 392.400 89.867,392.384 89.600,391.600 89.600 C 390.808 89.600,390.800 89.333,390.800 62.843 C 390.800 39.428,390.725 36.057,390.200 35.855 C 389.685 35.658,389.600 33.944,389.600 23.813 L 389.600 12.002 203.500 11.901 L 17.400 11.800 17.519 18.300 M53.384 53.627 C 53.239 53.861,53.216 54.149,53.333 54.267 C 53.620 54.553,54.400 54.048,54.400 53.576 C 54.400 53.065,53.709 53.099,53.384 53.627 M50.584 56.427 C 50.439 56.661,50.416 56.949,50.533 57.067 C 50.820 57.353,51.600 56.848,51.600 56.376 C 51.600 55.865,50.909 55.899,50.584 56.427 " stroke="none" fill="#201c1c" fill-rule="evenodd"></path></g></svg>