<?xml version="1.0" encoding="UTF-8"?>
<svg id="Layer_1" data-name="Layer 1" xmlns="http://www.w3.org/2000/svg" viewBox="0 0 532 481.6">
  <path d="M531.44,444.08l-17.92-64.4c-2.24-8.96-11.76-14-20.72-11.76-8.96,2.24-14,11.76-11.76,20.72l6.72,24.64-80.08-45.92V231.84c0-6.16-3.36-11.2-8.4-14.56l-116.48-67.2V57.68l17.92,18.48c3.36,3.36,7.84,5.04,11.76,5.04s8.4-1.68,11.76-4.48c6.72-6.16,6.72-16.8,.56-23.52L278.33,5.6c-3.36-3.92-7.84-5.6-12.32-5.6s-8.96,1.68-11.76,5.04l-46.48,47.6c-6.16,6.72-6.16,17.36,.56,23.52s17.36,6.16,23.52-.56l17.92-18.48v92.4l-117.6,68.32c-5.04,2.8-8.4,8.4-8.4,14.56v135.52l-80.08,45.92,7.28-24.64c2.24-8.96-2.8-17.92-11.76-20.72-8.96-2.24-17.92,2.8-20.72,11.76L.56,444.08c-1.12,4.48-.56,8.96,1.68,12.88,2.24,3.92,6.16,6.72,10.08,7.84l64.96,16.24c1.68,.56,2.8,.56,3.92,.56,7.28,0,14-5.04,16.24-12.32,2.24-8.96-3.36-17.92-12.32-20.16l-24.64-6.72,80.08-45.92,117.04,67.76c2.8,1.68,5.6,2.24,8.4,2.24s5.6-.56,8.4-2.24l117.04-67.76,80.09,45.92-25.2,6.16c-8.96,2.24-14.56,11.2-12.32,20.16,1.68,7.28,8.96,12.32,16.24,12.32,1.12,0,2.8,0,3.92-.56l65.52-15.68c4.48-1.12,7.84-3.92,10.08-7.84,2.24-3.92,2.8-8.4,1.68-12.88h0ZM157.36,260.96l91.84,53.2v106.4l-92.4-53.2v-106.4h.56Zm108.64,24.08l-92.4-53.2,92.4-53.2,92.4,53.2-92.4,53.2Zm16.8,135.52v-106.4l92.4-53.2v106.4l-92.4,53.2Z"/>
</svg>