<?xml version="1.0" encoding="UTF-8"?>
<svg id="Layer_1" data-name="Layer 1" xmlns="http://www.w3.org/2000/svg" viewBox="0 0 522.89 447.9">
  <path d="M321.46,.86c12.82,3.46,20.45,16.63,16.98,29.51l-107.49,399.71c-2.87,10.74-12.58,17.83-23.22,17.83-2.08,0-4.21-.25-6.29-.84-12.82-3.47-20.45-16.63-16.98-29.51L291.95,17.84c3.46-12.87,16.78-20.5,29.51-16.98h0ZM143.02,104.48c9.4,9.41,9.4,24.66,0,34.07L58.04,223.52l85.08,85.99c9.36,9.46,9.26,24.71-.2,34.07-4.71,4.6-10.8,6.93-16.93,6.93s-12.38-2.38-17.13-7.13L6.96,240.39C2.01,235.39-.3,228.76,.03,222.24c.28-5.77,2.62-11.46,7.02-15.86L108.95,104.48c9.41-9.36,24.66-9.36,34.07,0h0Zm269.73-.15l102.99,101.89c3.94,3.9,6.25,8.82,6.92,13.92,1,7.21-1.28,14.8-6.82,20.34l-102.99,102.98c-4.7,4.66-10.89,7.03-17.03,7.03s-12.33-2.38-17.03-7.03c-9.41-9.4-9.41-24.66,0-34.06l85.9-85.92-85.8-84.9c-9.46-9.36-9.51-24.61-.2-34.07,9.31-9.46,24.55-9.56,34.06-.2h0Z"/>
</svg>