<?xml version="1.0" encoding="UTF-8"?>
<svg id="Layer_1" data-name="Layer 1" xmlns="http://www.w3.org/2000/svg" viewBox="0 0 515 514.46">
  <path d="M505.24,82.94L432.06,9.76c-13.01-13.01-35.23-13.01-47.71,0L247.74,145.83,151.79,49.33c-28.19-28.19-73.73-28.19-101.92,0-13.55,13.55-21.14,31.44-21.14,50.96s7.59,37.41,21.14,50.96l95.95,95.95L9.76,383.81c-13.01,13.01-13.01,34.69,0,47.71l73.19,73.19c6.5,6.5,14.64,9.76,23.85,9.76s17.35-3.25,23.85-9.76l136.07-136.07,110.05,110.05c5.42,5.42,11.93,9.22,19.52,9.76l61.8,10.84c1.63,.54,3.8,.54,5.42,.54,9.76,0,18.98-3.8,25.48-10.84,7.59-8.13,11.39-19.52,9.76-30.9l-10.3-61.26c-1.09-7.59-4.88-14.09-9.76-19.52l-109.5-110.59,136.07-136.07c13.01-13.01,13.01-34.69,0-47.71h0ZM168.06,226.06l-61.26-61.8,58.01-58.01,61.26,61.26-58.01,58.55ZM59.63,100.29c0-10.84,3.8-21.14,11.93-29.27,8.13-7.59,18.98-11.93,29.27-11.93,10.84,0,21.14,3.8,29.27,11.93l13.01,13.01-58.55,58.54-13.01-13.01c-7.59-8.13-11.92-18.43-11.92-29.27h0ZM467.3,466.75c-.54,.54-1.63,1.63-3.8,1.09l-63.97-11.39-9.76-9.22,58.01-58.01,9.76,9.76c.54,.54,1.09,1.63,1.09,2.71l9.76,61.26c.54,2.17-.54,3.26-1.09,3.8h0Zm-41.74-99.2l-58.01,58.01-78.6-78.61,58.01-58.01,78.6,78.61Zm57.46-258.58L108.97,483.02c-1.09,1.09-2.71,1.09-3.8,0L31.99,409.83c-1.09-1.09-1.09-2.71,0-3.8l26.56-26.56,26.56,26.56c3.25,3.25,7.05,4.34,10.84,4.34s8.13-1.63,10.84-4.34c5.96-5.96,5.96-15.72,0-22.23l-26.56-26.56,37.41-37.41,26.56,26.56c3.25,3.25,7.05,4.34,10.84,4.34s8.13-1.63,10.84-4.34c5.96-5.96,5.96-15.72,0-22.23l-26.56-26.56,37.41-37.41,42.83,40.67c3.25,3.25,7.05,4.34,10.84,4.34s8.13-1.63,10.84-4.34c5.96-5.96,5.96-15.72,0-22.23l-41.2-41.2,37.41-37.41,26.56,26.56c3.25,3.25,7.05,4.34,10.84,4.34s8.13-1.63,10.84-4.34c5.96-5.96,5.96-15.72,0-22.23l-26.56-26.56,37.41-37.41,26.56,26.56c3.25,3.25,7.05,4.34,10.84,4.34s8.13-1.63,10.84-4.34c5.96-5.96,5.96-15.72,0-22.23l-26.56-26.56,37.41-37.41,42.83,41.2c3.25,3.25,7.05,4.34,10.84,4.34s8.13-1.63,10.84-4.34c5.96-5.96,5.96-15.72,0-22.23l-41.2-41.2,26.56-26.56h3.8l73.19,73.19c1.62,1.09,1.62,2.71,.54,3.79h0Z"/>
</svg>