<?xml version="1.0" encoding="UTF-8"?>
<svg id="Layer_1" data-name="Layer 1" xmlns="http://www.w3.org/2000/svg" viewBox="0 0 507.08 507.31">
  <path d="M299.39,224.46c-32.19-32.19-64.39-64.34-96.62-96.46-1.99-1.65-2.82-4.32-2.12-6.81,5.19-24.27,1.08-49.6-11.52-70.99-12.59-21.38-32.75-37.27-56.49-44.5C114.6,.2,95.37-.13,77.14,4.74c3.13,2.98,5.5,5.05,7.72,7.32,12.16,12.26,24.92,24.02,36.22,37.03h0c7.81,9.52,11.76,21.62,11.08,33.91-.68,12.29-5.95,23.88-14.76,32.48-8.75,8.64-20.37,13.73-32.65,14.31s-24.33-3.4-33.85-11.18c-7.52-6.41-14.28-13.72-21.29-20.74s-14.58-15.14-22.2-22.8h0c-3.76,12.59-4.75,25.84-2.93,38.85,3.51,27.47,18.34,52.22,40.91,68.26,22.57,16.05,50.82,21.91,77.91,16.2,2.56-.8,5.35,0,7.12,2.02,25.06,25.29,50.28,50.52,75.68,75.68l211.9,211.9c9.44,10.31,22.68,16.32,36.65,16.64,13.98,.32,27.48-5.09,37.37-14.96,9.9-9.87,15.33-23.36,15.04-37.34-.29-13.98-6.27-27.23-16.56-36.69-63.61-63.81-127.31-127.53-191.12-191.16h0Zm154.95,256.75c-7.77,0-15.23-3.09-20.73-8.58-5.5-5.5-8.58-12.95-8.58-20.73s3.09-15.23,8.58-20.73c5.5-5.5,12.95-8.58,20.73-8.58s15.23,3.09,20.73,8.58c5.5,5.5,8.58,12.95,8.58,20.73s-3.09,15.23-8.58,20.73c-5.5,5.5-12.95,8.58-20.73,8.58Z"/>
  <path d="M318.01,213.77c36.33-36.36,72.67-72.67,109.03-108.93,3.07-3.04,6.57-5.61,10.39-7.62,15.59-7.25,29.15-18.22,39.5-31.94,8.47-12.06,17.56-23.61,26.39-35.32,1.21-1.66,2.32-3.38,3.23-4.74L481.83,0c-11.4,8.47-22.35,17.15-33.85,25.23-17.38,11.78-31.13,28.17-39.71,47.32-.84,1.77-1.98,3.37-3.38,4.74-29.37,29.26-58.76,58.64-88.2,88.14-9.13,9.13-18.31,18.11-27.19,26.89l25.23,25.58h0c1-1.45,2.09-2.84,3.28-4.14h0Z"/>
  <path d="M230.52,322.09l-47.78-47.78-11.15-11.51-7.92,8.18c-48.87,48.87-97.65,97.74-146.31,146.61C6.63,427.06,.34,440.58,.01,454.89c-.32,14.3,5.35,28.1,15.64,38.03,10.29,9.94,24.27,15.13,38.56,14.3,14.28-.82,27.57-7.58,36.66-18.64,44.77-44.63,89.49-89.33,134.16-134.11,6.36-6.36,12.87-12.51,19.17-18.62l-13.67-13.72v-.05ZM45.46,442.37c-1.7,1.7-4.46,1.7-6.16,0s-1.7-4.46,0-6.16l130.57-130.52c1.7-1.7,4.46-1.7,6.16,0,1.7,1.7,1.7,4.46,0,6.16L45.46,442.37Zm152.62-108.47L67.56,464.26c-1.7,1.7-4.46,1.7-6.16,0s-1.7-4.46,0-6.16l130.57-130.32c.8-.87,1.93-1.38,3.11-1.4,1.18-.02,2.32,.44,3.16,1.28s1.29,1.98,1.26,3.17c-.03,1.18-.55,2.3-1.43,3.1v-.05Z"/>
</svg>