<?xml version="1.0" encoding="utf-8"?>
<!-- Generator: Adobe Illustrator 26.5.0, SVG Export Plug-In . SVG Version: 6.00 Build 0)  -->
<svg version="1.1" id="svg" xmlns="http://www.w3.org/2000/svg" xmlns:xlink="http://www.w3.org/1999/xlink" x="0px" y="0px"
	 viewBox="0 0 823.7 963.2" style="enable-background:new 0 0 823.7 963.2;" xml:space="preserve">
<style type="text/css">
	.st0{fill-rule:evenodd;clip-rule:evenodd;}
</style>
<g id="svgg">
	<path id="path0" class="st0" d="M226.1,260.4c0,5.9,0,6.2-0.8,6.2c-0.8,0-0.8,0.3-0.8,13.4c0,11.6-0.1,13.4-0.6,13.4
		c-0.5,0-0.6,1.8-0.6,13.4c0,13.1,0,13.4-0.8,13.4s-0.8,0.3-0.8,13.6c0,11.9-0.1,13.6-0.6,13.4c-0.5-0.2-0.6,0.7-0.6,6.8v7l7.6,0
		l7.6,0v-2.8c0-2.5,0.1-2.8,0.8-2.8c0.8,0,0.8-0.3,0.8-5c0-4.2,0.1-5,0.6-5c0.5,0,0.6-0.6,0.6-3.4c0-3,0.1-3.4,0.8-3.6
		c0.7-0.2,0.8-0.5,0.8-2.2c0-1.5,0.1-2,0.6-2c0.5,0,0.6-0.5,0.6-2c0-1.7,0.1-2,0.8-2c0.7,0,0.8-0.3,0.8-2.2c0-1.7,0.1-2.2,0.6-2.2
		c0.4,0,0.6-0.4,0.6-1.4c0-1.1,0.2-1.4,0.8-1.4c0.6,0,0.8-0.3,0.8-1.4c0-1,0.2-1.4,0.6-1.4s0.6-0.4,0.6-1.4c0-1.1,0.2-1.4,0.8-1.4
		c0.6,0,0.8-0.3,0.8-1.4c0-1,0.2-1.4,0.6-1.4c0.3,0,0.6-0.4,0.6-0.8c0-0.5,0.3-0.8,0.8-0.8c0.6,0,0.8-0.3,0.8-1.4
		c0-1,0.2-1.4,0.6-1.4c0.3,0,0.6-0.3,0.6-0.6c0-0.3,0.4-0.6,0.8-0.6c0.5,0,0.8-0.3,0.8-0.8c0-0.5,0.3-0.8,0.6-0.8
		c0.4,0,0.6-0.2,0.5-0.7c-0.2-0.6,0-0.7,0.8-0.6c0.8,0.1,0.9,0,0.9-0.7c0-0.5,0.3-0.8,0.6-0.8c0.4,0,0.6-0.2,0.5-0.7
		c-0.2-0.6,0-0.7,0.8-0.6c0.8,0.2,0.9,0,0.9-0.8c0-0.8,0.2-1,0.8-0.8c0.6,0.1,0.8,0,0.8-0.4c0-0.4,0.3-0.6,0.6-0.6
		c0.4,0,0.6-0.4,0.6-1c0-0.8,0.2-0.9,0.8-0.8c0.6,0.1,0.8,0,0.8-0.4c0-0.4,0.3-0.6,0.6-0.6c0.4,0,0.6-0.2,0.4-0.8
		c-0.2-0.6,0-0.8,0.8-0.8c0.6,0,1-0.2,1-0.6c0-0.4,0.4-0.6,1.2-0.6c0.9,0,1.3-0.2,1.4-0.8c0.2-0.6,0.5-0.8,1.6-0.8
		c1.3,0,1.4-0.1,1.2-0.9c-0.1-0.8,0-0.9,0.6-0.8c0.5,0.1,0.7,0,0.7-0.5c0-0.5,0.4-0.6,2.2-0.6c1.9,0,2.2-0.1,2.2-0.8
		c0-0.6,0.3-0.8,1.4-0.8c1,0,1.4-0.2,1.4-0.6c0-0.5,0.6-0.6,2.8-0.6c2.5,0,2.8-0.1,2.8-0.8c0-0.8,0.3-0.8,4.2-0.8
		c3.6,0,4.2-0.1,4-0.6c-0.2-0.5,1.6-0.6,14.8-0.6c14.7,0,15,0,15-0.8c0-0.8,0.3-0.8,26.8-0.8h26.8v182.4c0,182,0,182.4-0.8,182.6
		c-0.8,0.2-0.8,0.5-0.8,6.4c0,5.3-0.1,6.2-0.6,6.2c-0.5,0-0.6,0.6-0.6,2.8c0,2.5-0.1,2.8-0.8,2.8c-0.7,0-0.8,0.3-0.8,2.2
		c0,1.7-0.1,2.2-0.6,2.2c-0.5,0-0.6,0.5-0.6,2c0,1.6-0.1,2-0.6,2c-0.4,0-0.7,0.4-0.8,0.8s-0.5,0.8-0.8,0.8c-0.4,0-0.6,0.5-0.6,1.4
		c0,1.1-0.2,1.4-0.8,1.4c-0.4,0-0.8,0.3-0.8,0.6c0,0.3-0.3,0.6-0.6,0.6c-0.3,0-0.6,0.4-0.6,0.8c0,0.5-0.3,0.8-0.8,0.8
		c-0.7,0-0.8,0.2-0.7,1.4c0.1,1.6,1.5,2.1,1.5,0.6c0-0.5,0.3-0.8,0.6-0.8c0.4,0,0.6-0.2,0.4-0.7c-0.1-0.4,0-1,0.2-1.3
		c0.4-0.5,0.4-0.5,0.2,0.1c-0.2,0.5,0,0.7,0.6,0.7c0.5,0,0.8-0.3,0.8-0.8c0-0.4,0.3-0.8,0.6-0.8c0.4,0,0.6-0.5,0.7-1.5
		c0.1-1.2,0.3-1.5,0.9-1.4c0.4,0.1,0.7,0,0.5-0.2c-0.4-0.4,0.5-1.4,1-1.1c0.2,0.1,0.3,0,0.3-0.3c-0.3-2.2,0.1-3.9,0.8-3.9
		c0.7,0,0.8-0.3,0.8-1.9c0-1.1,0.3-2.3,0.6-2.7c0.4-0.5,0.6-1.7,0.6-3.1c0-2,0.1-2.3,0.8-2.3c0.8,0,0.8-0.3,0.8-6.2
		c0-5.1,0.1-6.2,0.6-6.4c0.5-0.2,0.6-21,0.6-183.8V282.2h-28c-27.7,0-28,0-28,0.8c0,0.8-0.3,0.8-14.8,0.8c-12.9,0-14.8,0.1-14.8,0.6
		c0,0.5-0.7,0.6-4.2,0.6c-3.9,0-4.2,0.1-4.2,0.8c0,0.7-0.3,0.8-2.8,0.8c-2.2,0-2.8,0.1-2.8,0.6c0,0.4-0.4,0.6-1.6,0.6
		c-1.3,0-1.6,0.1-1.6,0.8c0,0.7-0.3,0.8-2,0.8c-1.8,0-2,0.1-1.8,0.7c0.2,0.6,0.1,0.7-0.8,0.6c-0.8-0.2-1,0-1,0.7
		c0,0.6-0.3,0.8-0.8,0.8c-0.4,0-0.9,0.2-1,0.5c-0.2,0.4-0.2,0.4-0.2,0c0-0.7-0.8-0.6-0.8,0.1c0,0.4-0.4,0.6-1.4,0.6
		c-1.1,0-1.4,0.2-1.4,0.8c0,0.4-0.3,0.8-0.6,0.8c-0.3,0-0.6,0.3-0.6,0.6c0,0.3-0.4,0.6-0.8,0.6c-0.5,0-0.8,0.3-0.8,0.8
		c0,0.4-0.3,0.8-0.6,0.8c-0.3,0-0.6,0.3-0.6,0.6c0,0.3-0.4,0.6-0.8,0.6c-0.5,0-0.8,0.3-0.8,0.8c0,0.4-0.3,0.8-0.6,0.8
		c-0.3,0-0.6,0.3-0.6,0.6c0,0.3-0.4,0.6-0.8,0.6c-0.7,0-0.8,0.2-0.7,1c0.2,0.8,0.1,1-0.6,0.8c-0.5-0.2-0.7,0-0.7,0.4
		c0,0.4-0.3,0.6-0.8,0.6c-0.7,0-0.8,0.2-0.7,0.9c0.1,0.8,0,0.9-0.6,0.7c-0.5-0.1-0.7,0-0.6,0.3c0.1,0.3-0.3,0.6-0.8,0.7
		c-0.6,0.1-0.9,0.4-0.9,0.9c0,0.5,0.2,0.7,0.5,0.5c0.3-0.2,0.4-0.1,0.2,0.1c-0.1,0.2-0.6,0.3-1.1,0.2c-0.4-0.1-0.8-0.1-0.8,0.1
		c0.3,1.4-0.1,2.6-0.8,2.6c-0.5,0-0.8,0.3-0.8,0.8c0,0.4-0.3,0.8-0.6,0.8c-0.4,0-0.6,0.4-0.6,1.4c0,1.1-0.2,1.4-0.8,1.4
		c-0.6,0-0.8,0.3-0.8,1.4s-0.2,1.4-0.8,1.4c-0.6,0-0.8,0.3-0.8,1.4c0,1-0.2,1.4-0.6,1.4c-0.4,0-0.6,0.4-0.6,1.3
		c0,0.7-0.2,1.6-0.4,1.9c-0.3,0.4-0.4,0.4-0.4,0.1c0-0.3-0.2-0.5-0.4-0.5c-0.2,0-0.4,0.9-0.4,2c0,1.5-0.1,2-0.6,2
		c-0.5,0-0.6,0.5-0.6,2.2c0,1.7-0.2,2.3-0.8,2.7c-0.5,0.3-0.8,1.1-0.9,2.1c-0.1,1-0.3,1.5-0.6,1.5c-0.4-0.1-0.5,0.8-0.5,3.5
		c0,3.3-0.1,3.6-0.8,3.6c-0.7,0-0.8,0.3-0.9,5.1c-0.1,3.8-0.2,5.1-0.6,5c-0.4-0.1-0.5,0.7-0.5,2.7v2.8h-6.4h-6.4V354
		c0-4.9,0.1-5.8,0.6-5.8c0.5,0,0.6-1.8,0.6-13.4c0-13.1,0-13.4,0.8-13.4c0.8,0,0.8-0.3,0.8-13.2c0-11.5,0.1-13.2,0.6-13.2
		s0.6-1.8,0.6-13.4c0-13.2,0-13.4,0.8-13.4c0.8,0,0.8-0.2,0.7-6.5l-0.1-6.5l186.1,0.1l186.1,0.1v11.8c0,10.1,0.1,11.8,0.6,12
		c0.5,0.2,0.6,3.6,0.6,27c0,26.5,0,26.8,0.8,26.8c0.8,0,0.8,0.3,0.8,13.4v13.4h-6.4h-6.4v-2.2c0-1.9-0.1-2.2-0.8-2.2
		c-0.7,0-0.8-0.3-0.8-4.2c0-3.5-0.1-4.2-0.6-4.2c-0.4,0-0.5,0.2-0.3,0.5c0.2,0.3,0.1,0.4,0,0.2c-0.2-0.2-0.3-2-0.2-4.1
		c0.1-3.6,0-3.8-0.7-3.8c-0.7,0-0.8-0.2-0.8-2.2c0-1.4-0.2-2.2-0.5-2.4c-0.4-0.2-0.4-0.2,0-0.2c0.7,0,0.6-0.8-0.1-0.8
		c-0.4,0-0.6-0.5-0.6-1.8c0-1.5-0.1-1.9-0.8-2c-0.7-0.2-0.8-0.5-0.8-2.2c0-1.4-0.2-2-0.6-2.2c-0.4-0.2-0.6-0.8-0.6-2
		c0-1.5-0.2-1.8-0.8-2c-0.6-0.2-0.8-0.5-0.8-1.6c0-0.9-0.2-1.4-0.6-1.4c-0.3,0-0.6-0.4-0.6-0.8c0-0.5-0.3-0.8-0.8-0.8
		c-0.6,0-0.8-0.3-0.8-1.4c0-1.2-0.1-1.4-0.8-1.2c-0.6,0.2-0.7,0.1-0.6-0.6c0.2-0.6,0-0.8-0.6-0.8c-0.6,0-0.8-0.3-0.8-0.8
		c0-0.5-0.4-1.3-0.8-1.9c-0.4-0.6-0.7-1.2-0.5-1.4c0.1-0.1-0.1-0.3-0.6-0.3c-0.9,0-2.7-2.1-2.2-2.5c0.1-0.1-0.1-0.3-0.6-0.3
		c-0.6,0-0.9-0.2-0.9-0.8c0-0.4-0.2-0.8-0.5-0.7c-0.3,0.1-0.5-0.5-0.6-1.4c-0.1-1.4-0.2-1.5-1.4-1.5c-1.6,0-3.1-1-3.1-2.1
		c0-0.5-0.1-0.7-0.3-0.6c-0.5,0.5-2.5-1.4-2.5-2.2c0-0.7-0.2-0.8-1.6-0.7c-1.4,0.1-1.6,0.1-1.4-0.6c0.2-0.5,0-0.7-0.6-0.7
		c-0.6,0-0.8-0.3-0.8-0.8c0-0.6-0.3-0.8-1.4-0.8c-1,0-1.4-0.2-1.4-0.6c0-0.4-0.4-0.6-1.4-0.6c-1,0-1.4-0.2-1.6-0.8
		c-0.2-0.6-0.5-0.8-1.4-0.8c-0.8,0-1.2-0.2-1.2-0.6c0-0.4-0.4-0.6-1.4-0.6c-1,0-1.4-0.2-1.6-0.8c-0.2-0.7-0.5-0.8-2-0.8
		c-1.4,0-1.8-0.2-1.8-0.6c0-0.5-0.6-0.6-2.8-0.6c-2.6,0-2.8-0.1-2.8-0.8c0-0.8-0.2-0.8-3.8-0.7c-2.1,0-3.9-0.1-4.1-0.2
		c-0.2-0.2-0.1-0.2,0.2,0c0.3,0.2,0.5,0.1,0.5-0.3c0-0.5-1.3-0.6-10.6-0.6c-10.3,0-10.6,0-10.6-0.8c0-0.8-0.4-0.8-31-0.8l-31,0v183
		c0,121.7,0.1,183,0.4,183c0.2,0,0.4-0.2,0.4-0.5c0-0.3,0.1-0.3,0.4,0.1c0.2,0.3,0.4,3.4,0.4,6.9c0,6,0,6.3,0.8,6.3
		c0.7,0,0.8,0.3,0.8,3.6c0,2.9,0.1,3.6,0.6,3.6c0.5,0,0.6,0.6,0.6,2.8c0,2.5,0.1,2.8,0.8,2.8c0.6,0,0.8,0.3,0.8,1.4
		c0,1,0.2,1.4,0.6,1.4c0.4,0,0.6,0.4,0.6,1.4c0,1.1,0.2,1.4,0.9,1.5c0.5,0.1,0.9,0.4,0.8,0.6c-0.1,0.3,0.2,0.5,0.5,0.5
		c0.3,0,0.6,0.4,0.6,0.8c0,0.5,0.3,0.8,0.8,0.8c0.4,0,0.8,0.3,0.8,0.6c0,0.3,0.3,0.6,0.6,0.6c0.3,0,0.6,0.4,0.6,0.8
		c0,0.5,0.3,0.8,0.8,0.8c0.4,0,0.8,0.3,0.8,0.6c0,0.3,0.3,0.6,0.6,0.6c0.3,0,0.6,0.4,0.6,0.8c0,0.6,0.3,0.8,1.4,0.8
		c1,0,1.4,0.2,1.4,0.6s0.4,0.6,1.4,0.6c1.1,0,1.4,0.2,1.4,0.8c0,0.6,0.3,0.8,1.4,0.8c1,0,1.4,0.2,1.4,0.6c0,0.5,0.5,0.6,2.2,0.6
		c1.9,0,2.2,0.1,2.2,0.8c0,0.7,0.3,0.8,2.8,0.8c2.2,0,2.8,0.1,2.8,0.6c0,0.5,1.1,0.6,7.8,0.6c7.6,0,7.8,0,7.8,0.8
		c0,0.4,0.2,0.8,0.5,0.8c0.3,0,3.7,0,7.6,0l7.1,0v5.6v5.6h-97.2h-97.2v-5.6v-5.6h7.8c7.5,0,7.8,0,7.8-0.8s0.3-0.8,7.8-0.8
		c7.3,0,7.8-0.1,7.7-0.7c-0.2-0.6,0.1-0.7,2.8-0.6c2.8,0.1,2.9,0.1,2.9-0.7c0-0.7,0.2-0.8,2-0.8c1.5,0,2-0.1,2-0.6
		c0-0.4,0.4-0.6,1.4-0.6c1.1,0,1.4-0.2,1.4-0.8c0-0.7,0.3-0.8,1.6-0.8c1.2,0,1.6-0.2,1.6-0.6c0-0.3,0.3-0.6,0.6-0.6
		c0.3,0,0.6-0.4,0.6-0.8c0-0.6,0.3-0.8,1.3-0.8c1.2,0,1.3-0.1,1.3-1.2c0-0.7-0.2-1.2-0.5-1.2c-0.3,0-0.5,0.3-0.5,0.6
		c0,0.4-0.4,0.6-1.4,0.6c-1.1,0-1.4,0.2-1.4,0.8c0,0.5-0.3,0.8-0.8,0.8c-0.4,0-0.8,0.3-0.8,0.6c0,0.4-0.4,0.6-1.4,0.6
		c-1.1,0-1.4,0.2-1.4,0.8c0,0.6-0.3,0.8-1.4,0.8c-1,0-1.4,0.2-1.4,0.6c0,0.5-0.5,0.6-2,0.6c-1.7,0-2,0.1-2,0.8c0,0.7-0.3,0.8-3,0.8
		c-2.4,0-3,0.1-3,0.6c0,0.5-1.1,0.6-7.6,0.6c-7.3,0-7.6,0-7.6,0.8c0,0.8-0.3,0.8-7.8,0.8h-7.8v7v7h98.6h98.6v-7v-7h-7.8
		c-7.5,0-7.8,0-7.8-0.8s-0.3-0.8-7.8-0.8c-6.7,0-7.8-0.1-7.8-0.6c0-0.5-0.6-0.6-2.8-0.6c-2.5,0-2.8-0.1-2.8-0.8c0-0.7-0.3-0.8-2-0.8
		c-1.6,0-2-0.1-2-0.6c0-0.5-0.3-0.6-1.5-0.5c-1.4,0.1-1.5,0.1-1.4-0.8c0.2-0.8,0-0.9-1.3-0.9c-1.1,0-1.4-0.2-1.4-0.6
		c0-0.5-0.3-0.6-1.5-0.5c-1.4,0.1-1.5,0.1-1.3-0.8c0.2-0.8,0-0.9-0.8-0.8c-0.7,0.1-0.9,0-0.8-0.6c0.1-0.5-0.1-0.7-0.7-0.7
		c-0.6,0-0.8-0.3-0.8-0.8c0-0.6-0.2-0.8-0.7-0.7c-0.5,0.1-0.7-0.1-0.6-0.8c0.1-0.8,0-0.9-0.8-0.8c-0.8,0.2-0.9,0.1-0.8-0.6
		c0.2-0.6,0.1-0.7-0.5-0.5c-0.5,0.2-0.7,0-0.7-0.8c0-0.9-0.2-1-0.9-0.9c-0.8,0.2-0.9,0-0.8-1.4c0.1-1.2,0-1.5-0.5-1.5
		c-0.5,0-0.6-0.4-0.6-1.4c0-1.1-0.2-1.4-0.8-1.4c-0.7,0-0.8-0.3-0.8-2.8c0-2.2-0.1-2.8-0.6-2.8c-0.5,0-0.6-0.6-0.6-3.4
		c0-3.1-0.1-3.4-0.8-3.4c-0.8,0-0.8-0.3-0.8-6.4c0-5.4-0.1-6.4-0.6-6.4c-0.5,0-0.6-20.5-0.6-181.8V283.4h29.6
		c29.3,0,29.6,0,29.6,0.8c0,0.8,0.3,0.8,10.6,0.8c9.4,0,10.6,0.1,10.6,0.6c0,0.5,0.5,0.6,3.5,0.5c3.5-0.1,3.5-0.1,3.4,0.8
		c-0.2,0.9-0.1,0.9,2.7,0.9c2.3,0,2.8,0.1,2.8,0.6c0,0.5,0.5,0.6,2.2,0.6c1.9,0,2.2,0.1,2.2,0.8c0,0.7,0.3,0.8,1.6,0.8
		c1.2,0,1.5,0.1,1.4,0.6c-0.2,0.5,0.1,0.6,1.2,0.6c1.2,0,1.4,0.1,1.4,0.8c0,0.6,0.3,0.8,1.4,0.8c1.1,0,1.4,0.2,1.4,0.8
		s0.3,0.8,1.4,0.8c1,0,1.4,0.2,1.4,0.6c0,0.3,0.4,0.6,0.8,0.6c0.5,0,0.8,0.3,0.8,0.8c0,0.6,0.3,0.8,1.4,0.8c1,0,1.4,0.2,1.4,0.6
		c0,0.3,0.3,0.6,0.6,0.6c0.3,0,0.6,0.4,0.6,0.8c0,0.5,0.3,0.8,0.8,0.8c0.4,0,0.8,0.3,0.8,0.6c0,0.3,0.3,0.6,0.6,0.6
		c0.3,0,0.6,0.4,0.6,0.8c0,0.6,0.3,0.8,1.4,0.8c1.3,0,1.4,0.1,1.4,1.2c0,0.9,0.2,1.3,0.8,1.4c0.4,0.1,0.8,0.5,0.8,0.8
		c0,0.3,0.3,0.6,0.6,0.6c0.3,0,0.6,0.4,0.6,0.8c0,0.5,0.3,0.8,0.8,0.8c0.4,0,0.8,0.3,0.8,0.6c0,0.3,0.3,0.6,0.6,0.6
		c0.3,0,0.6,0.4,0.6,0.8c0,0.5,0.3,0.8,0.8,0.8c0.6,0,0.8,0.3,0.8,1.4c0,1,0.2,1.4,0.6,1.4c0.3,0,0.6,0.3,0.6,0.6
		c0,0.3,0.4,0.6,0.8,0.6c0.8,0,1,0.8,0.8,2.3c0,0.3,0.2,0.5,0.6,0.5c0.4,0,0.6,0.3,0.6,0.8c0,0.5,0.3,0.8,0.8,0.8
		c0.6,0,0.8,0.3,0.8,1.4s0.2,1.4,0.8,1.4c0.7,0,0.8,0.3,0.8,2c0,1.5,0.1,2,0.6,2c0.5,0,0.6,0.5,0.6,2.2c0,1.9,0.1,2.2,0.8,2.2
		s0.8,0.3,0.8,2.2c0,1.7,0.1,2.2,0.6,2.2c0.5,0,0.6,0.6,0.6,2.8c0,2.7,0,2.8,0.9,2.7c0.9-0.2,0.9-0.1,0.8,3.4c-0.1,3,0,3.5,0.5,3.5
		c0.5,0,0.6,0.6,0.6,4.2c0,3.9,0.1,4.2,0.8,4.2c0.7,0,0.8,0.3,0.8,2.2v2.2h7.6h7.6v-14.8c0-12.9-0.1-14.8-0.6-14.8
		c-0.5,0-0.6-3.2-0.6-26.6c0-26.3,0-26.6-0.8-26.8c-0.7-0.2-1.4-19-0.8-23.2c0.1-0.4-37.6-0.5-187.2-0.5H226.1V260.4 M264.1,297
		c0,0.5-0.8,1-1.1,0.7c-0.3-0.3,0.2-1.1,0.7-1.1C263.9,296.6,264.1,296.7,264.1,297 M261.3,299.8c0,0.5-0.8,1-1.1,0.7
		c-0.3-0.3,0.2-1.1,0.7-1.1C261.1,299.4,261.3,299.5,261.3,299.8"/>
	<path id="path1" class="st0" d="M227.2,261.7c0.1,6.3,0.1,6.5-0.7,6.5c-0.8,0-0.8,0.2-0.8,13.4c0,11.6-0.1,13.4-0.6,13.4
		s-0.6,1.7-0.6,13.2c0,12.9,0,13.2-0.8,13.2c-0.8,0-0.8,0.3-0.8,13.4c0,11.6-0.1,13.4-0.6,13.4c-0.5,0-0.6,0.9-0.6,5.8v5.8h6.4h6.4
		V357c0-2,0.1-2.8,0.5-2.7c0.4,0.1,0.5-1.2,0.6-5c0.1-4.8,0.2-5.1,0.9-5.1c0.7,0,0.8-0.3,0.8-3.6c0-2.7,0.1-3.6,0.5-3.5
		c0.3,0.1,0.5-0.5,0.6-1.5c0.1-1,0.4-1.8,0.9-2.1c0.6-0.4,0.8-1,0.8-2.7c0-1.7,0.1-2.2,0.6-2.2c0.5,0,0.6-0.5,0.6-2
		c0-1.1,0.2-2,0.4-2c0.2,0,0.4,0.2,0.4,0.5c0,0.3,0.1,0.3,0.4-0.1c0.2-0.3,0.4-1.2,0.4-1.9c0-0.9,0.2-1.3,0.6-1.3
		c0.4,0,0.6-0.4,0.6-1.4c0-1.1,0.2-1.4,0.8-1.4c0.6,0,0.8-0.3,0.8-1.4s0.2-1.4,0.8-1.4c0.6,0,0.8-0.3,0.8-1.4c0-1,0.2-1.4,0.6-1.4
		c0.3,0,0.6-0.4,0.6-0.8c0-0.5,0.3-0.8,0.8-0.8c0.7,0,1.1-1.1,0.8-2.6c0-0.2,0.3-0.3,0.8-0.1c0.4,0.1,0.9,0,1.1-0.2
		c0.2-0.2,0.1-0.3-0.2-0.1c-0.3,0.2-0.5,0-0.5-0.5c0-0.5,0.3-0.8,0.9-0.9c0.5-0.1,0.8-0.4,0.8-0.7c-0.1-0.4,0.1-0.5,0.6-0.3
		c0.6,0.2,0.7,0,0.6-0.7c-0.1-0.8,0-0.9,0.7-0.9c0.5,0,0.8-0.3,0.8-0.6c0-0.4,0.2-0.6,0.7-0.4c0.6,0.2,0.7,0.1,0.6-0.8
		c-0.2-0.8,0-1,0.7-1c0.5,0,0.8-0.3,0.8-0.6c0-0.3,0.3-0.6,0.6-0.6c0.3,0,0.6-0.4,0.6-0.8c0-0.5,0.3-0.8,0.8-0.8
		c0.4,0,0.8-0.3,0.8-0.6c0-0.3,0.3-0.6,0.6-0.6c0.3,0,0.6-0.4,0.6-0.8c0-0.5,0.3-0.8,0.8-0.8c0.4,0,0.8-0.3,0.8-0.6
		c0-0.3,0.3-0.6,0.6-0.6c0.3,0,0.6-0.4,0.6-0.8c0-0.6,0.3-0.8,1.4-0.8c1,0,1.4-0.2,1.4-0.6c0-0.7,0.7-0.8,0.9-0.1
		c0.2,0.4,0.2,0.4,0.2,0c0-0.3,0.4-0.5,0.8-0.5c0.5,0,0.8-0.3,0.8-0.8c0-0.7,0.2-0.8,1-0.7c0.8,0.2,1,0.1,0.8-0.6
		c-0.2-0.7,0-0.7,1.8-0.7c1.8,0,2-0.1,2-0.8c0-0.7,0.3-0.8,1.6-0.8c1.2,0,1.6-0.2,1.6-0.6c0-0.5,0.6-0.6,2.8-0.6
		c2.5,0,2.8-0.1,2.8-0.8c0-0.7,0.3-0.8,4.2-0.8c3.5,0,4.2-0.1,4.2-0.6c0-0.5,1.9-0.6,14.8-0.6c14.5,0,14.8,0,14.8-0.8
		c0-0.8,0.3-0.8,28-0.8h28v183.6c0,162.8-0.1,183.6-0.6,183.8c-0.5,0.2-0.6,1.3-0.6,6.4c0,5.9,0,6.2-0.8,6.2c-0.7,0-0.8,0.3-0.8,2.3
		c0,1.4-0.2,2.6-0.6,3.1c-0.3,0.4-0.6,1.6-0.6,2.7c0,1.7-0.1,1.9-0.8,1.9c-0.8,0-1.1,1.7-0.8,3.9c0,0.3-0.1,0.4-0.3,0.3
		c-0.5-0.3-1.4,0.7-1,1.1c0.2,0.2-0.1,0.2-0.5,0.2c-0.7-0.1-0.8,0.1-0.9,1.4c-0.1,1-0.3,1.5-0.7,1.5c-0.3,0-0.6,0.4-0.6,0.8
		c0,0.5-0.3,0.8-0.8,0.8c-0.6,0-0.7-0.2-0.6-0.7c0.2-0.6,0.2-0.6-0.2-0.1c-0.2,0.3-0.3,0.9-0.2,1.3c0.1,0.5,0,0.7-0.4,0.7
		c-0.4,0-0.6,0.3-0.6,0.8c0,0.5-0.3,0.8-0.8,0.8c-0.6,0-0.7-0.2-0.6-0.7c0.2-0.6,0.2-0.6-0.2-0.1c-0.2,0.3-0.3,0.9-0.2,1.3
		c0.2,0.6,0,0.7-1.2,0.7c-1.2,0-1.4,0.2-1.4,0.8c0,0.4-0.3,0.8-0.6,0.8c-0.3,0-0.6,0.3-0.6,0.6c0,0.4-0.4,0.6-1.6,0.6
		c-1.3,0-1.6,0.1-1.6,0.8c0,0.6-0.3,0.8-1.4,0.8c-1,0-1.4,0.2-1.4,0.6c0,0.5-0.5,0.6-2,0.6c-1.8,0-2,0.1-2,0.8
		c0,0.8-0.2,0.8-2.9,0.7c-2.6-0.1-2.9-0.1-2.8,0.6c0.2,0.6-0.4,0.7-7.7,0.7c-7.6,0-7.8,0-7.8,0.8s-0.3,0.8-7.8,0.8h-7.8v5.6v5.6
		h97.2h97.2v-5.6v-5.6l-7.1,0c-3.9,0-7.3,0-7.6,0c-0.3,0-0.5-0.3-0.5-0.8c0-0.8-0.2-0.8-7.8-0.8c-6.7,0-7.8-0.1-7.8-0.6
		c0-0.5-0.6-0.6-2.8-0.6c-2.5,0-2.8-0.1-2.8-0.8c0-0.7-0.3-0.8-2.2-0.8c-1.7,0-2.2-0.1-2.2-0.6c0-0.4-0.4-0.6-1.4-0.6
		c-1.1,0-1.4-0.2-1.4-0.8c0-0.6-0.3-0.8-1.4-0.8c-1,0-1.4-0.2-1.4-0.6s-0.4-0.6-1.4-0.6c-1.1,0-1.4-0.2-1.4-0.8
		c0-0.4-0.3-0.8-0.6-0.8c-0.3,0-0.6-0.3-0.6-0.6c0-0.3-0.4-0.6-0.8-0.6c-0.5,0-0.8-0.3-0.8-0.8c0-0.4-0.3-0.8-0.6-0.8
		c-0.3,0-0.6-0.3-0.6-0.6c0-0.3-0.4-0.6-0.8-0.6c-0.5,0-0.8-0.3-0.8-0.8c0-0.4-0.3-0.8-0.6-0.8c-0.3,0-0.6-0.2-0.5-0.5
		c0.1-0.3-0.3-0.6-0.8-0.6c-0.7-0.1-0.9-0.4-0.9-1.5c0-1-0.2-1.4-0.6-1.4c-0.4,0-0.6-0.4-0.6-1.4c0-1.1-0.2-1.4-0.8-1.4
		c-0.7,0-0.8-0.3-0.8-2.8c0-2.2-0.1-2.8-0.6-2.8c-0.5,0-0.6-0.7-0.6-3.6c0-3.3-0.1-3.6-0.8-3.6c-0.8,0-0.8-0.3-0.8-6.3
		c0-3.5-0.2-6.6-0.4-6.9c-0.3-0.4-0.4-0.4-0.4-0.1c0,0.3-0.2,0.5-0.4,0.5c-0.3,0-0.4-61.3-0.4-183v-183l31,0c30.6,0,31,0,31,0.8
		c0,0.8,0.3,0.8,10.6,0.8c9.3,0,10.6,0.1,10.6,0.6c0,0.4-0.2,0.5-0.5,0.3c-0.3-0.2-0.4-0.1-0.2,0c0.2,0.2,2,0.3,4.1,0.2
		c3.6-0.1,3.8,0,3.8,0.7c0,0.8,0.2,0.8,2.8,0.8c2.2,0,2.8,0.1,2.8,0.6c0,0.4,0.5,0.6,1.8,0.6c1.5,0,1.9,0.1,2,0.8
		c0.2,0.6,0.5,0.8,1.6,0.8c0.9,0,1.4,0.2,1.4,0.6c0,0.4,0.4,0.6,1.2,0.6c0.9,0,1.3,0.2,1.4,0.8c0.2,0.6,0.5,0.8,1.6,0.8
		c0.9,0,1.4,0.2,1.4,0.6c0,0.4,0.4,0.6,1.4,0.6c1.1,0,1.4,0.2,1.4,0.8c0,0.5,0.3,0.8,0.8,0.8c0.6,0,0.8,0.2,0.6,0.7
		c-0.2,0.6,0,0.7,1.4,0.6c1.4-0.1,1.6,0,1.6,0.7c0,0.8,2.1,2.6,2.5,2.2c0.1-0.1,0.3,0.1,0.3,0.6c0,1.1,1.4,2.1,3.1,2.1
		c1.2,0,1.3,0.1,1.4,1.5c0.1,0.9,0.3,1.5,0.6,1.4c0.3-0.1,0.5,0.3,0.5,0.7c0,0.6,0.3,0.8,0.9,0.8c0.5,0,0.8,0.1,0.6,0.3
		c-0.5,0.5,1.4,2.5,2.2,2.5c0.5,0,0.7,0.1,0.6,0.3c-0.1,0.1,0.1,0.8,0.5,1.4c0.4,0.6,0.8,1.5,0.8,1.9c0,0.6,0.3,0.8,0.8,0.8
		c0.7,0,0.8,0.2,0.6,0.8c-0.2,0.7-0.1,0.8,0.6,0.6c0.7-0.2,0.8,0,0.8,1.2c0,1.2,0.2,1.4,0.8,1.4c0.5,0,0.8,0.3,0.8,0.8
		c0,0.4,0.3,0.8,0.6,0.8c0.4,0,0.6,0.4,0.6,1.4c0,1,0.2,1.4,0.8,1.6c0.7,0.2,0.8,0.5,0.8,2c0,1.2,0.2,1.9,0.6,2
		c0.4,0.2,0.6,0.8,0.6,2.2c0,1.6,0.1,2,0.8,2.2c0.7,0.2,0.8,0.5,0.8,2c0,1.4,0.2,1.8,0.6,1.8c0.7,0,0.8,0.7,0.1,0.9
		c-0.4,0.2-0.4,0.2,0,0.2c0.3,0,0.5,0.8,0.5,2.2c0,2,0.1,2.2,0.8,2.2c0.8,0,0.8,0.2,0.7,3.8c0,2.1,0.1,3.9,0.2,4.1
		c0.2,0.2,0.2,0.1,0-0.2c-0.2-0.3,0-0.5,0.3-0.5c0.5,0,0.6,0.7,0.6,4.2c0,3.9,0.1,4.2,0.8,4.2c0.7,0,0.8,0.3,0.8,2.2v2.2h6.4h6.4
		v-13.4c0-13.1,0-13.4-0.8-13.4c-0.8,0-0.8-0.3-0.8-26.8c0-23.4-0.1-26.8-0.6-27c-0.5-0.2-0.6-1.9-0.6-12v-11.8l-186.1-0.1
		l-186.1-0.1L227.2,261.7 M263.1,297c-0.1,0.2-0.2,0.5-0.1,0.6c0.3,0.3,1.1-0.2,1.1-0.7C264.1,296.4,263.4,296.5,263.1,297
		 M260.3,299.8c-0.1,0.2-0.2,0.5-0.1,0.6c0.3,0.3,1.1-0.2,1.1-0.7C261.3,299.2,260.6,299.3,260.3,299.8"/>
	<path id="path2" class="st0" d="M227.2,261.7c0.1,6.3,0.1,6.5-0.7,6.5c-0.8,0-0.8,0.2-0.8,13.4c0,11.6-0.1,13.4-0.6,13.4
		s-0.6,1.7-0.6,13.2c0,12.9,0,13.2-0.8,13.2c-0.8,0-0.8,0.3-0.8,13.4c0,11.6-0.1,13.4-0.6,13.4c-0.5,0-0.6,0.9-0.6,5.8v5.8h6.4h6.4
		V357c0-2,0.1-2.8,0.5-2.7c0.4,0.1,0.5-1.2,0.6-5c0.1-4.8,0.2-5.1,0.9-5.1c0.7,0,0.8-0.3,0.8-3.6c0-2.7,0.1-3.6,0.5-3.5
		c0.3,0.1,0.5-0.5,0.6-1.5c0.1-1,0.4-1.8,0.9-2.1c0.6-0.4,0.8-1,0.8-2.7c0-1.7,0.1-2.2,0.6-2.2c0.5,0,0.6-0.5,0.6-2
		c0-1.1,0.2-2,0.4-2c0.2,0,0.4,0.2,0.4,0.5c0,0.3,0.1,0.3,0.4-0.1c0.2-0.3,0.4-1.2,0.4-1.9c0-0.9,0.2-1.3,0.6-1.3
		c0.4,0,0.6-0.4,0.6-1.4c0-1.1,0.2-1.4,0.8-1.4c0.6,0,0.8-0.3,0.8-1.4s0.2-1.4,0.8-1.4c0.6,0,0.8-0.3,0.8-1.4c0-1,0.2-1.4,0.6-1.4
		c0.3,0,0.6-0.4,0.6-0.8c0-0.5,0.3-0.8,0.8-0.8c0.7,0,1.1-1.1,0.8-2.6c0-0.2,0.3-0.3,0.8-0.1c0.4,0.1,0.9,0,1.1-0.2
		c0.2-0.2,0.1-0.3-0.2-0.1c-0.3,0.2-0.5,0-0.5-0.5c0-0.5,0.3-0.8,0.9-0.9c0.5-0.1,0.8-0.4,0.8-0.7c-0.1-0.4,0.1-0.5,0.6-0.3
		c0.6,0.2,0.7,0,0.6-0.7c-0.1-0.8,0-0.9,0.7-0.9c0.5,0,0.8-0.3,0.8-0.6c0-0.4,0.2-0.6,0.7-0.4c0.6,0.2,0.7,0.1,0.6-0.8
		c-0.2-0.8,0-1,0.7-1c0.5,0,0.8-0.3,0.8-0.6c0-0.3,0.3-0.6,0.6-0.6c0.3,0,0.6-0.4,0.6-0.8c0-0.5,0.3-0.8,0.8-0.8
		c0.4,0,0.8-0.3,0.8-0.6c0-0.3,0.3-0.6,0.6-0.6c0.3,0,0.6-0.4,0.6-0.8c0-0.5,0.3-0.8,0.8-0.8c0.4,0,0.8-0.3,0.8-0.6
		c0-0.3,0.3-0.6,0.6-0.6c0.3,0,0.6-0.4,0.6-0.8c0-0.6,0.3-0.8,1.4-0.8c1,0,1.4-0.2,1.4-0.6c0-0.7,0.7-0.8,0.9-0.1
		c0.2,0.4,0.2,0.4,0.2,0c0-0.3,0.4-0.5,0.8-0.5c0.5,0,0.8-0.3,0.8-0.8c0-0.7,0.2-0.8,1-0.7c0.8,0.2,1,0.1,0.8-0.6
		c-0.2-0.7,0-0.7,1.8-0.7c1.8,0,2-0.1,2-0.8c0-0.7,0.3-0.8,1.6-0.8c1.2,0,1.6-0.2,1.6-0.6c0-0.5,0.6-0.6,2.8-0.6
		c2.5,0,2.8-0.1,2.8-0.8c0-0.7,0.3-0.8,4.2-0.8c3.5,0,4.2-0.1,4.2-0.6c0-0.5,1.9-0.6,14.8-0.6c14.5,0,14.8,0,14.8-0.8
		c0-0.8,0.3-0.8,28-0.8h28v183.6c0,162.8-0.1,183.6-0.6,183.8c-0.5,0.2-0.6,1.3-0.6,6.4c0,5.9,0,6.2-0.8,6.2c-0.7,0-0.8,0.3-0.8,2.3
		c0,1.4-0.2,2.6-0.6,3.1c-0.3,0.4-0.6,1.6-0.6,2.7c0,1.7-0.1,1.9-0.8,1.9c-0.8,0-1.1,1.7-0.8,3.9c0,0.3-0.1,0.4-0.3,0.3
		c-0.5-0.3-1.4,0.7-1,1.1c0.2,0.2-0.1,0.2-0.5,0.2c-0.7-0.1-0.8,0.1-0.9,1.4c-0.1,1-0.3,1.5-0.7,1.5c-0.3,0-0.6,0.4-0.6,0.8
		c0,0.5-0.3,0.8-0.8,0.8c-0.6,0-0.7-0.2-0.6-0.7c0.2-0.6,0.2-0.6-0.2-0.1c-0.2,0.3-0.3,0.9-0.2,1.3c0.1,0.5,0,0.7-0.4,0.7
		c-0.4,0-0.6,0.3-0.6,0.8c0,0.5-0.3,0.8-0.8,0.8c-0.6,0-0.7-0.2-0.6-0.7c0.2-0.6,0.2-0.6-0.2-0.1c-0.2,0.3-0.3,0.9-0.2,1.3
		c0.2,0.6,0,0.7-1.2,0.7c-1.2,0-1.4,0.2-1.4,0.8c0,0.4-0.3,0.8-0.6,0.8c-0.3,0-0.6,0.3-0.6,0.6c0,0.4-0.4,0.6-1.6,0.6
		c-1.3,0-1.6,0.1-1.6,0.8c0,0.6-0.3,0.8-1.4,0.8c-1,0-1.4,0.2-1.4,0.6c0,0.5-0.5,0.6-2,0.6c-1.8,0-2,0.1-2,0.8
		c0,0.8-0.2,0.8-2.9,0.7c-2.6-0.1-2.9-0.1-2.8,0.6c0.2,0.6-0.4,0.7-7.7,0.7c-7.6,0-7.8,0-7.8,0.8s-0.3,0.8-7.8,0.8h-7.8v5.6v5.6
		h97.2h97.2v-5.6v-5.6l-7.1,0c-3.9,0-7.3,0-7.6,0c-0.3,0-0.5-0.3-0.5-0.8c0-0.8-0.2-0.8-7.8-0.8c-6.7,0-7.8-0.1-7.8-0.6
		c0-0.5-0.6-0.6-2.8-0.6c-2.5,0-2.8-0.1-2.8-0.8c0-0.7-0.3-0.8-2.2-0.8c-1.7,0-2.2-0.1-2.2-0.6c0-0.4-0.4-0.6-1.4-0.6
		c-1.1,0-1.4-0.2-1.4-0.8c0-0.6-0.3-0.8-1.4-0.8c-1,0-1.4-0.2-1.4-0.6s-0.4-0.6-1.4-0.6c-1.1,0-1.4-0.2-1.4-0.8
		c0-0.4-0.3-0.8-0.6-0.8c-0.3,0-0.6-0.3-0.6-0.6c0-0.3-0.4-0.6-0.8-0.6c-0.5,0-0.8-0.3-0.8-0.8c0-0.4-0.3-0.8-0.6-0.8
		c-0.3,0-0.6-0.3-0.6-0.6c0-0.3-0.4-0.6-0.8-0.6c-0.5,0-0.8-0.3-0.8-0.8c0-0.4-0.3-0.8-0.6-0.8c-0.3,0-0.6-0.2-0.5-0.5
		c0.1-0.3-0.3-0.6-0.8-0.6c-0.7-0.1-0.9-0.4-0.9-1.5c0-1-0.2-1.4-0.6-1.4c-0.4,0-0.6-0.4-0.6-1.4c0-1.1-0.2-1.4-0.8-1.4
		c-0.7,0-0.8-0.3-0.8-2.8c0-2.2-0.1-2.8-0.6-2.8c-0.5,0-0.6-0.7-0.6-3.6c0-3.3-0.1-3.6-0.8-3.6c-0.8,0-0.8-0.3-0.8-6.3
		c0-3.5-0.2-6.6-0.4-6.9c-0.3-0.4-0.4-0.4-0.4-0.1c0,0.3-0.2,0.5-0.4,0.5c-0.3,0-0.4-61.3-0.4-183v-183l31,0c30.6,0,31,0,31,0.8
		c0,0.8,0.3,0.8,10.6,0.8c9.3,0,10.6,0.1,10.6,0.6c0,0.4-0.2,0.5-0.5,0.3c-0.3-0.2-0.4-0.1-0.2,0c0.2,0.2,2,0.3,4.1,0.2
		c3.6-0.1,3.8,0,3.8,0.7c0,0.8,0.2,0.8,2.8,0.8c2.2,0,2.8,0.1,2.8,0.6c0,0.4,0.5,0.6,1.8,0.6c1.5,0,1.9,0.1,2,0.8
		c0.2,0.6,0.5,0.8,1.6,0.8c0.9,0,1.4,0.2,1.4,0.6c0,0.4,0.4,0.6,1.2,0.6c0.9,0,1.3,0.2,1.4,0.8c0.2,0.6,0.5,0.8,1.6,0.8
		c0.9,0,1.4,0.2,1.4,0.6c0,0.4,0.4,0.6,1.4,0.6c1.1,0,1.4,0.2,1.4,0.8c0,0.5,0.3,0.8,0.8,0.8c0.6,0,0.8,0.2,0.6,0.7
		c-0.2,0.6,0,0.7,1.4,0.6c1.4-0.1,1.6,0,1.6,0.7c0,0.8,2.1,2.6,2.5,2.2c0.1-0.1,0.3,0.1,0.3,0.6c0,1.1,1.4,2.1,3.1,2.1
		c1.2,0,1.3,0.1,1.4,1.5c0.1,0.9,0.3,1.5,0.6,1.4c0.3-0.1,0.5,0.3,0.5,0.7c0,0.6,0.3,0.8,0.9,0.8c0.5,0,0.8,0.1,0.6,0.3
		c-0.5,0.5,1.4,2.5,2.2,2.5c0.5,0,0.7,0.1,0.6,0.3c-0.1,0.1,0.1,0.8,0.5,1.4c0.4,0.6,0.8,1.5,0.8,1.9c0,0.6,0.3,0.8,0.8,0.8
		c0.7,0,0.8,0.2,0.6,0.8c-0.2,0.7-0.1,0.8,0.6,0.6c0.7-0.2,0.8,0,0.8,1.2c0,1.2,0.2,1.4,0.8,1.4c0.5,0,0.8,0.3,0.8,0.8
		c0,0.4,0.3,0.8,0.6,0.8c0.4,0,0.6,0.4,0.6,1.4c0,1,0.2,1.4,0.8,1.6c0.7,0.2,0.8,0.5,0.8,2c0,1.2,0.2,1.9,0.6,2
		c0.4,0.2,0.6,0.8,0.6,2.2c0,1.6,0.1,2,0.8,2.2c0.7,0.2,0.8,0.5,0.8,2c0,1.4,0.2,1.8,0.6,1.8c0.7,0,0.8,0.7,0.1,0.9
		c-0.4,0.2-0.4,0.2,0,0.2c0.3,0,0.5,0.8,0.5,2.2c0,2,0.1,2.2,0.8,2.2c0.8,0,0.8,0.2,0.7,3.8c0,2.1,0.1,3.9,0.2,4.1
		c0.2,0.2,0.2,0.1,0-0.2c-0.2-0.3,0-0.5,0.3-0.5c0.5,0,0.6,0.7,0.6,4.2c0,3.9,0.1,4.2,0.8,4.2c0.7,0,0.8,0.3,0.8,2.2v2.2h6.4h6.4
		v-13.4c0-13.1,0-13.4-0.8-13.4c-0.8,0-0.8-0.3-0.8-26.8c0-23.4-0.1-26.8-0.6-27c-0.5-0.2-0.6-1.9-0.6-12v-11.8l-186.1-0.1
		l-186.1-0.1L227.2,261.7 M263.1,297c-0.1,0.2-0.2,0.5-0.1,0.6c0.3,0.3,1.1-0.2,1.1-0.7C264.1,296.4,263.4,296.5,263.1,297
		 M260.3,299.8c-0.1,0.2-0.2,0.5-0.1,0.6c0.3,0.3,1.1-0.2,1.1-0.7C261.3,299.2,260.6,299.3,260.3,299.8"/>
	<path id="path3" class="st0" d="M227.2,261.7c0.1,6.3,0.1,6.5-0.7,6.5c-0.8,0-0.8,0.2-0.8,13.4c0,11.6-0.1,13.4-0.6,13.4
		s-0.6,1.7-0.6,13.2c0,12.9,0,13.2-0.8,13.2c-0.8,0-0.8,0.3-0.8,13.4c0,11.6-0.1,13.4-0.6,13.4c-0.5,0-0.6,0.9-0.6,5.8v5.8h6.4h6.4
		V357c0-2,0.1-2.8,0.5-2.7c0.4,0.1,0.5-1.2,0.6-5c0.1-4.8,0.2-5.1,0.9-5.1c0.7,0,0.8-0.3,0.8-3.6c0-2.7,0.1-3.6,0.5-3.5
		c0.3,0.1,0.5-0.5,0.6-1.5c0.1-1,0.4-1.8,0.9-2.1c0.6-0.4,0.8-1,0.8-2.7c0-1.7,0.1-2.2,0.6-2.2c0.5,0,0.6-0.5,0.6-2
		c0-1.1,0.2-2,0.4-2c0.2,0,0.4,0.2,0.4,0.5c0,0.3,0.1,0.3,0.4-0.1c0.2-0.3,0.4-1.2,0.4-1.9c0-0.9,0.2-1.3,0.6-1.3
		c0.4,0,0.6-0.4,0.6-1.4c0-1.1,0.2-1.4,0.8-1.4c0.6,0,0.8-0.3,0.8-1.4s0.2-1.4,0.8-1.4c0.6,0,0.8-0.3,0.8-1.4c0-1,0.2-1.4,0.6-1.4
		c0.3,0,0.6-0.4,0.6-0.8c0-0.5,0.3-0.8,0.8-0.8c0.7,0,1.1-1.1,0.8-2.6c0-0.2,0.3-0.3,0.8-0.1c0.4,0.1,0.9,0,1.1-0.2
		c0.2-0.2,0.1-0.3-0.2-0.1c-0.3,0.2-0.5,0-0.5-0.5c0-0.5,0.3-0.8,0.9-0.9c0.5-0.1,0.8-0.4,0.8-0.7c-0.1-0.4,0.1-0.5,0.6-0.3
		c0.6,0.2,0.7,0,0.6-0.7c-0.1-0.8,0-0.9,0.7-0.9c0.5,0,0.8-0.3,0.8-0.6c0-0.4,0.2-0.6,0.7-0.4c0.6,0.2,0.7,0.1,0.6-0.8
		c-0.2-0.8,0-1,0.7-1c0.5,0,0.8-0.3,0.8-0.6c0-0.3,0.3-0.6,0.6-0.6c0.3,0,0.6-0.4,0.6-0.8c0-0.5,0.3-0.8,0.8-0.8
		c0.4,0,0.8-0.3,0.8-0.6c0-0.3,0.3-0.6,0.6-0.6c0.3,0,0.6-0.4,0.6-0.8c0-0.5,0.3-0.8,0.8-0.8c0.4,0,0.8-0.3,0.8-0.6
		c0-0.3,0.3-0.6,0.6-0.6c0.3,0,0.6-0.4,0.6-0.8c0-0.6,0.3-0.8,1.4-0.8c1,0,1.4-0.2,1.4-0.6c0-0.7,0.7-0.8,0.9-0.1
		c0.2,0.4,0.2,0.4,0.2,0c0-0.3,0.4-0.5,0.8-0.5c0.5,0,0.8-0.3,0.8-0.8c0-0.7,0.2-0.8,1-0.7c0.8,0.2,1,0.1,0.8-0.6
		c-0.2-0.7,0-0.7,1.8-0.7c1.8,0,2-0.1,2-0.8c0-0.7,0.3-0.8,1.6-0.8c1.2,0,1.6-0.2,1.6-0.6c0-0.5,0.6-0.6,2.8-0.6
		c2.5,0,2.8-0.1,2.8-0.8c0-0.7,0.3-0.8,4.2-0.8c3.5,0,4.2-0.1,4.2-0.6c0-0.5,1.9-0.6,14.8-0.6c14.5,0,14.8,0,14.8-0.8
		c0-0.8,0.3-0.8,28-0.8h28v183.6c0,162.8-0.1,183.6-0.6,183.8c-0.5,0.2-0.6,1.3-0.6,6.4c0,5.9,0,6.2-0.8,6.2c-0.7,0-0.8,0.3-0.8,2.3
		c0,1.4-0.2,2.6-0.6,3.1c-0.3,0.4-0.6,1.6-0.6,2.7c0,1.7-0.1,1.9-0.8,1.9c-0.8,0-1.1,1.7-0.8,3.9c0,0.3-0.1,0.4-0.3,0.3
		c-0.5-0.3-1.4,0.7-1,1.1c0.2,0.2-0.1,0.2-0.5,0.2c-0.7-0.1-0.8,0.1-0.9,1.4c-0.1,1-0.3,1.5-0.7,1.5c-0.3,0-0.6,0.4-0.6,0.8
		c0,0.5-0.3,0.8-0.8,0.8c-0.6,0-0.7-0.2-0.6-0.7c0.2-0.6,0.2-0.6-0.2-0.1c-0.2,0.3-0.3,0.9-0.2,1.3c0.1,0.5,0,0.7-0.4,0.7
		c-0.4,0-0.6,0.3-0.6,0.8c0,0.5-0.3,0.8-0.8,0.8c-0.6,0-0.7-0.2-0.6-0.7c0.2-0.6,0.2-0.6-0.2-0.1c-0.2,0.3-0.3,0.9-0.2,1.3
		c0.2,0.6,0,0.7-1.2,0.7c-1.2,0-1.4,0.2-1.4,0.8c0,0.4-0.3,0.8-0.6,0.8c-0.3,0-0.6,0.3-0.6,0.6c0,0.4-0.4,0.6-1.6,0.6
		c-1.3,0-1.6,0.1-1.6,0.8c0,0.6-0.3,0.8-1.4,0.8c-1,0-1.4,0.2-1.4,0.6c0,0.5-0.5,0.6-2,0.6c-1.8,0-2,0.1-2,0.8
		c0,0.8-0.2,0.8-2.9,0.7c-2.6-0.1-2.9-0.1-2.8,0.6c0.2,0.6-0.4,0.7-7.7,0.7c-7.6,0-7.8,0-7.8,0.8s-0.3,0.8-7.8,0.8h-7.8v5.6v5.6
		h97.2h97.2v-5.6v-5.6l-7.1,0c-3.9,0-7.3,0-7.6,0c-0.3,0-0.5-0.3-0.5-0.8c0-0.8-0.2-0.8-7.8-0.8c-6.7,0-7.8-0.1-7.8-0.6
		c0-0.5-0.6-0.6-2.8-0.6c-2.5,0-2.8-0.1-2.8-0.8c0-0.7-0.3-0.8-2.2-0.8c-1.7,0-2.2-0.1-2.2-0.6c0-0.4-0.4-0.6-1.4-0.6
		c-1.1,0-1.4-0.2-1.4-0.8c0-0.6-0.3-0.8-1.4-0.8c-1,0-1.4-0.2-1.4-0.6s-0.4-0.6-1.4-0.6c-1.1,0-1.4-0.2-1.4-0.8
		c0-0.4-0.3-0.8-0.6-0.8c-0.3,0-0.6-0.3-0.6-0.6c0-0.3-0.4-0.6-0.8-0.6c-0.5,0-0.8-0.3-0.8-0.8c0-0.4-0.3-0.8-0.6-0.8
		c-0.3,0-0.6-0.3-0.6-0.6c0-0.3-0.4-0.6-0.8-0.6c-0.5,0-0.8-0.3-0.8-0.8c0-0.4-0.3-0.8-0.6-0.8c-0.3,0-0.6-0.2-0.5-0.5
		c0.1-0.3-0.3-0.6-0.8-0.6c-0.7-0.1-0.9-0.4-0.9-1.5c0-1-0.2-1.4-0.6-1.4c-0.4,0-0.6-0.4-0.6-1.4c0-1.1-0.2-1.4-0.8-1.4
		c-0.7,0-0.8-0.3-0.8-2.8c0-2.2-0.1-2.8-0.6-2.8c-0.5,0-0.6-0.7-0.6-3.6c0-3.3-0.1-3.6-0.8-3.6c-0.8,0-0.8-0.3-0.8-6.3
		c0-3.5-0.2-6.6-0.4-6.9c-0.3-0.4-0.4-0.4-0.4-0.1c0,0.3-0.2,0.5-0.4,0.5c-0.3,0-0.4-61.3-0.4-183v-183l31,0c30.6,0,31,0,31,0.8
		c0,0.8,0.3,0.8,10.6,0.8c9.3,0,10.6,0.1,10.6,0.6c0,0.4-0.2,0.5-0.5,0.3c-0.3-0.2-0.4-0.1-0.2,0c0.2,0.2,2,0.3,4.1,0.2
		c3.6-0.1,3.8,0,3.8,0.7c0,0.8,0.2,0.8,2.8,0.8c2.2,0,2.8,0.1,2.8,0.6c0,0.4,0.5,0.6,1.8,0.6c1.5,0,1.9,0.1,2,0.8
		c0.2,0.6,0.5,0.8,1.6,0.8c0.9,0,1.4,0.2,1.4,0.6c0,0.4,0.4,0.6,1.2,0.6c0.9,0,1.3,0.2,1.4,0.8c0.2,0.6,0.5,0.8,1.6,0.8
		c0.9,0,1.4,0.2,1.4,0.6c0,0.4,0.4,0.6,1.4,0.6c1.1,0,1.4,0.2,1.4,0.8c0,0.5,0.3,0.8,0.8,0.8c0.6,0,0.8,0.2,0.6,0.7
		c-0.2,0.6,0,0.7,1.4,0.6c1.4-0.1,1.6,0,1.6,0.7c0,0.8,2.1,2.6,2.5,2.2c0.1-0.1,0.3,0.1,0.3,0.6c0,1.1,1.4,2.1,3.1,2.1
		c1.2,0,1.3,0.1,1.4,1.5c0.1,0.9,0.3,1.5,0.6,1.4c0.3-0.1,0.5,0.3,0.5,0.7c0,0.6,0.3,0.8,0.9,0.8c0.5,0,0.8,0.1,0.6,0.3
		c-0.5,0.5,1.4,2.5,2.2,2.5c0.5,0,0.7,0.1,0.6,0.3c-0.1,0.1,0.1,0.8,0.5,1.4c0.4,0.6,0.8,1.5,0.8,1.9c0,0.6,0.3,0.8,0.8,0.8
		c0.7,0,0.8,0.2,0.6,0.8c-0.2,0.7-0.1,0.8,0.6,0.6c0.7-0.2,0.8,0,0.8,1.2c0,1.2,0.2,1.4,0.8,1.4c0.5,0,0.8,0.3,0.8,0.8
		c0,0.4,0.3,0.8,0.6,0.8c0.4,0,0.6,0.4,0.6,1.4c0,1,0.2,1.4,0.8,1.6c0.7,0.2,0.8,0.5,0.8,2c0,1.2,0.2,1.9,0.6,2
		c0.4,0.2,0.6,0.8,0.6,2.2c0,1.6,0.1,2,0.8,2.2c0.7,0.2,0.8,0.5,0.8,2c0,1.4,0.2,1.8,0.6,1.8c0.7,0,0.8,0.7,0.1,0.9
		c-0.4,0.2-0.4,0.2,0,0.2c0.3,0,0.5,0.8,0.5,2.2c0,2,0.1,2.2,0.8,2.2c0.8,0,0.8,0.2,0.7,3.8c0,2.1,0.1,3.9,0.2,4.1
		c0.2,0.2,0.2,0.1,0-0.2c-0.2-0.3,0-0.5,0.3-0.5c0.5,0,0.6,0.7,0.6,4.2c0,3.9,0.1,4.2,0.8,4.2c0.7,0,0.8,0.3,0.8,2.2v2.2h6.4h6.4
		v-13.4c0-13.1,0-13.4-0.8-13.4c-0.8,0-0.8-0.3-0.8-26.8c0-23.4-0.1-26.8-0.6-27c-0.5-0.2-0.6-1.9-0.6-12v-11.8l-186.1-0.1
		l-186.1-0.1L227.2,261.7 M263.1,297c-0.1,0.2-0.2,0.5-0.1,0.6c0.3,0.3,1.1-0.2,1.1-0.7C264.1,296.4,263.4,296.5,263.1,297
		 M260.3,299.8c-0.1,0.2-0.2,0.5-0.1,0.6c0.3,0.3,1.1-0.2,1.1-0.7C261.3,299.2,260.6,299.3,260.3,299.8"/>
	<path id="path4" class="st0" d="M227.2,261.7c0.1,6.3,0.1,6.5-0.7,6.5c-0.8,0-0.8,0.2-0.8,13.4c0,11.6-0.1,13.4-0.6,13.4
		s-0.6,1.7-0.6,13.2c0,12.9,0,13.2-0.8,13.2c-0.8,0-0.8,0.3-0.8,13.4c0,11.6-0.1,13.4-0.6,13.4c-0.5,0-0.6,0.9-0.6,5.8v5.8h6.4h6.4
		V357c0-2,0.1-2.8,0.5-2.7c0.4,0.1,0.5-1.2,0.6-5c0.1-4.8,0.2-5.1,0.9-5.1c0.7,0,0.8-0.3,0.8-3.6c0-2.7,0.1-3.6,0.5-3.5
		c0.3,0.1,0.5-0.5,0.6-1.5c0.1-1,0.4-1.8,0.9-2.1c0.6-0.4,0.8-1,0.8-2.7c0-1.7,0.1-2.2,0.6-2.2c0.5,0,0.6-0.5,0.6-2
		c0-1.1,0.2-2,0.4-2c0.2,0,0.4,0.2,0.4,0.5c0,0.3,0.1,0.3,0.4-0.1c0.2-0.3,0.4-1.2,0.4-1.9c0-0.9,0.2-1.3,0.6-1.3
		c0.4,0,0.6-0.4,0.6-1.4c0-1.1,0.2-1.4,0.8-1.4c0.6,0,0.8-0.3,0.8-1.4s0.2-1.4,0.8-1.4c0.6,0,0.8-0.3,0.8-1.4c0-1,0.2-1.4,0.6-1.4
		c0.3,0,0.6-0.4,0.6-0.8c0-0.5,0.3-0.8,0.8-0.8c0.7,0,1.1-1.1,0.8-2.6c0-0.2,0.3-0.3,0.8-0.1c0.4,0.1,0.9,0,1.1-0.2
		c0.2-0.2,0.1-0.3-0.2-0.1c-0.3,0.2-0.5,0-0.5-0.5c0-0.5,0.3-0.8,0.9-0.9c0.5-0.1,0.8-0.4,0.8-0.7c-0.1-0.4,0.1-0.5,0.6-0.3
		c0.6,0.2,0.7,0,0.6-0.7c-0.1-0.8,0-0.9,0.7-0.9c0.5,0,0.8-0.3,0.8-0.6c0-0.4,0.2-0.6,0.7-0.4c0.6,0.2,0.7,0.1,0.6-0.8
		c-0.2-0.8,0-1,0.7-1c0.5,0,0.8-0.3,0.8-0.6c0-0.3,0.3-0.6,0.6-0.6c0.3,0,0.6-0.4,0.6-0.8c0-0.5,0.3-0.8,0.8-0.8
		c0.4,0,0.8-0.3,0.8-0.6c0-0.3,0.3-0.6,0.6-0.6c0.3,0,0.6-0.4,0.6-0.8c0-0.5,0.3-0.8,0.8-0.8c0.4,0,0.8-0.3,0.8-0.6
		c0-0.3,0.3-0.6,0.6-0.6c0.3,0,0.6-0.4,0.6-0.8c0-0.6,0.3-0.8,1.4-0.8c1,0,1.4-0.2,1.4-0.6c0-0.7,0.7-0.8,0.9-0.1
		c0.2,0.4,0.2,0.4,0.2,0c0-0.3,0.4-0.5,0.8-0.5c0.5,0,0.8-0.3,0.8-0.8c0-0.7,0.2-0.8,1-0.7c0.8,0.2,1,0.1,0.8-0.6
		c-0.2-0.7,0-0.7,1.8-0.7c1.8,0,2-0.1,2-0.8c0-0.7,0.3-0.8,1.6-0.8c1.2,0,1.6-0.2,1.6-0.6c0-0.5,0.6-0.6,2.8-0.6
		c2.5,0,2.8-0.1,2.8-0.8c0-0.7,0.3-0.8,4.2-0.8c3.5,0,4.2-0.1,4.2-0.6c0-0.5,1.9-0.6,14.8-0.6c14.5,0,14.8,0,14.8-0.8
		c0-0.8,0.3-0.8,28-0.8h28v183.6c0,162.8-0.1,183.6-0.6,183.8c-0.5,0.2-0.6,1.3-0.6,6.4c0,5.9,0,6.2-0.8,6.2c-0.7,0-0.8,0.3-0.8,2.3
		c0,1.4-0.2,2.6-0.6,3.1c-0.3,0.4-0.6,1.6-0.6,2.7c0,1.7-0.1,1.9-0.8,1.9c-0.8,0-1.1,1.7-0.8,3.9c0,0.3-0.1,0.4-0.3,0.3
		c-0.5-0.3-1.4,0.7-1,1.1c0.2,0.2-0.1,0.2-0.5,0.2c-0.7-0.1-0.8,0.1-0.9,1.4c-0.1,1-0.3,1.5-0.7,1.5c-0.3,0-0.6,0.4-0.6,0.8
		c0,0.5-0.3,0.8-0.8,0.8c-0.6,0-0.7-0.2-0.6-0.7c0.2-0.6,0.2-0.6-0.2-0.1c-0.2,0.3-0.3,0.9-0.2,1.3c0.1,0.5,0,0.7-0.4,0.7
		c-0.4,0-0.6,0.3-0.6,0.8c0,0.5-0.3,0.8-0.8,0.8c-0.6,0-0.7-0.2-0.6-0.7c0.2-0.6,0.2-0.6-0.2-0.1c-0.2,0.3-0.3,0.9-0.2,1.3
		c0.2,0.6,0,0.7-1.2,0.7c-1.2,0-1.4,0.2-1.4,0.8c0,0.4-0.3,0.8-0.6,0.8c-0.3,0-0.6,0.3-0.6,0.6c0,0.4-0.4,0.6-1.6,0.6
		c-1.3,0-1.6,0.1-1.6,0.8c0,0.6-0.3,0.8-1.4,0.8c-1,0-1.4,0.2-1.4,0.6c0,0.5-0.5,0.6-2,0.6c-1.8,0-2,0.1-2,0.8
		c0,0.8-0.2,0.8-2.9,0.7c-2.6-0.1-2.9-0.1-2.8,0.6c0.2,0.6-0.4,0.7-7.7,0.7c-7.6,0-7.8,0-7.8,0.8s-0.3,0.8-7.8,0.8h-7.8v5.6v5.6
		h97.2h97.2v-5.6v-5.6l-7.1,0c-3.9,0-7.3,0-7.6,0c-0.3,0-0.5-0.3-0.5-0.8c0-0.8-0.2-0.8-7.8-0.8c-6.7,0-7.8-0.1-7.8-0.6
		c0-0.5-0.6-0.6-2.8-0.6c-2.5,0-2.8-0.1-2.8-0.8c0-0.7-0.3-0.8-2.2-0.8c-1.7,0-2.2-0.1-2.2-0.6c0-0.4-0.4-0.6-1.4-0.6
		c-1.1,0-1.4-0.2-1.4-0.8c0-0.6-0.3-0.8-1.4-0.8c-1,0-1.4-0.2-1.4-0.6s-0.4-0.6-1.4-0.6c-1.1,0-1.4-0.2-1.4-0.8
		c0-0.4-0.3-0.8-0.6-0.8c-0.3,0-0.6-0.3-0.6-0.6c0-0.3-0.4-0.6-0.8-0.6c-0.5,0-0.8-0.3-0.8-0.8c0-0.4-0.3-0.8-0.6-0.8
		c-0.3,0-0.6-0.3-0.6-0.6c0-0.3-0.4-0.6-0.8-0.6c-0.5,0-0.8-0.3-0.8-0.8c0-0.4-0.3-0.8-0.6-0.8c-0.3,0-0.6-0.2-0.5-0.5
		c0.1-0.3-0.3-0.6-0.8-0.6c-0.7-0.1-0.9-0.4-0.9-1.5c0-1-0.2-1.4-0.6-1.4c-0.4,0-0.6-0.4-0.6-1.4c0-1.1-0.2-1.4-0.8-1.4
		c-0.7,0-0.8-0.3-0.8-2.8c0-2.2-0.1-2.8-0.6-2.8c-0.5,0-0.6-0.7-0.6-3.6c0-3.3-0.1-3.6-0.8-3.6c-0.8,0-0.8-0.3-0.8-6.3
		c0-3.5-0.2-6.6-0.4-6.9c-0.3-0.4-0.4-0.4-0.4-0.1c0,0.3-0.2,0.5-0.4,0.5c-0.3,0-0.4-61.3-0.4-183v-183l31,0c30.6,0,31,0,31,0.8
		c0,0.8,0.3,0.8,10.6,0.8c9.3,0,10.6,0.1,10.6,0.6c0,0.4-0.2,0.5-0.5,0.3c-0.3-0.2-0.4-0.1-0.2,0c0.2,0.2,2,0.3,4.1,0.2
		c3.6-0.1,3.8,0,3.8,0.7c0,0.8,0.2,0.8,2.8,0.8c2.2,0,2.8,0.1,2.8,0.6c0,0.4,0.5,0.6,1.8,0.6c1.5,0,1.9,0.1,2,0.8
		c0.2,0.6,0.5,0.8,1.6,0.8c0.9,0,1.4,0.2,1.4,0.6c0,0.4,0.4,0.6,1.2,0.6c0.9,0,1.3,0.2,1.4,0.8c0.2,0.6,0.5,0.8,1.6,0.8
		c0.9,0,1.4,0.2,1.4,0.6c0,0.4,0.4,0.6,1.4,0.6c1.1,0,1.4,0.2,1.4,0.8c0,0.5,0.3,0.8,0.8,0.8c0.6,0,0.8,0.2,0.6,0.7
		c-0.2,0.6,0,0.7,1.4,0.6c1.4-0.1,1.6,0,1.6,0.7c0,0.8,2.1,2.6,2.5,2.2c0.1-0.1,0.3,0.1,0.3,0.6c0,1.1,1.4,2.1,3.1,2.1
		c1.2,0,1.3,0.1,1.4,1.5c0.1,0.9,0.3,1.5,0.6,1.4c0.3-0.1,0.5,0.3,0.5,0.7c0,0.6,0.3,0.8,0.9,0.8c0.5,0,0.8,0.1,0.6,0.3
		c-0.5,0.5,1.4,2.5,2.2,2.5c0.5,0,0.7,0.1,0.6,0.3c-0.1,0.1,0.1,0.8,0.5,1.4c0.4,0.6,0.8,1.5,0.8,1.9c0,0.6,0.3,0.8,0.8,0.8
		c0.7,0,0.8,0.2,0.6,0.8c-0.2,0.7-0.1,0.8,0.6,0.6c0.7-0.2,0.8,0,0.8,1.2c0,1.2,0.2,1.4,0.8,1.4c0.5,0,0.8,0.3,0.8,0.8
		c0,0.4,0.3,0.8,0.6,0.8c0.4,0,0.6,0.4,0.6,1.4c0,1,0.2,1.4,0.8,1.6c0.7,0.2,0.8,0.5,0.8,2c0,1.2,0.2,1.9,0.6,2
		c0.4,0.2,0.6,0.8,0.6,2.2c0,1.6,0.1,2,0.8,2.2c0.7,0.2,0.8,0.5,0.8,2c0,1.4,0.2,1.8,0.6,1.8c0.7,0,0.8,0.7,0.1,0.9
		c-0.4,0.2-0.4,0.2,0,0.2c0.3,0,0.5,0.8,0.5,2.2c0,2,0.1,2.2,0.8,2.2c0.8,0,0.8,0.2,0.7,3.8c0,2.1,0.1,3.9,0.2,4.1
		c0.2,0.2,0.2,0.1,0-0.2c-0.2-0.3,0-0.5,0.3-0.5c0.5,0,0.6,0.7,0.6,4.2c0,3.9,0.1,4.2,0.8,4.2c0.7,0,0.8,0.3,0.8,2.2v2.2h6.4h6.4
		v-13.4c0-13.1,0-13.4-0.8-13.4c-0.8,0-0.8-0.3-0.8-26.8c0-23.4-0.1-26.8-0.6-27c-0.5-0.2-0.6-1.9-0.6-12v-11.8l-186.1-0.1
		l-186.1-0.1L227.2,261.7 M263.1,297c-0.1,0.2-0.2,0.5-0.1,0.6c0.3,0.3,1.1-0.2,1.1-0.7C264.1,296.4,263.4,296.5,263.1,297
		 M260.3,299.8c-0.1,0.2-0.2,0.5-0.1,0.6c0.3,0.3,1.1-0.2,1.1-0.7C261.3,299.2,260.6,299.3,260.3,299.8"/>
</g>
<g>
	<path d="M785.9,140.8C675.2,89.4,472.1,2.3,412.7,2.2C353.3,2.3,149.4,89.7,38.2,141.2C14.8,152-0.6,176.7,0,202.6
		c1.9,93.8,14.3,231.6,63.2,354.8c105.8,266.8,291.4,392,343.5,405.1c1.9,0.5,3.7,0.7,5.6,0.7c2,0,3.9-0.2,5.8-0.8
		c59.6-15.8,242.7-154.6,342.3-405c48.8-122.7,61.4-261,63.3-355.6C824.2,178.9,806.5,150.4,785.9,140.8L785.9,140.8z M717.9,540.5
		c-92.8,233.2-259.4,356.8-305.9,375.7c-48.5-18.2-210.4-133.9-306.3-375.7c-46.3-116.7-58.2-248.7-60-338.8
		c-0.2-8.8,5.7-16.2,11.7-18.9C222.9,106.1,375.7,48,412.7,47.9c37.2,0.1,189.3,57.9,353.9,134.3c4.1,2.2,11.6,13.5,11.5,18.6
		C776.2,291.6,764.2,424.2,717.9,540.5L717.9,540.5z"/>
</g>
</svg>
