<?xml version="1.0" encoding="UTF-8"?><svg id="Layer_1" data-name="Layer 1" xmlns="http://www.w3.org/2000/svg" viewBox="0 0 470.4 336"><path d="M44.8,0C20.18,0,0,20.18,0,44.8v246.4c0,24.62,20.18,44.8,44.8,44.8H425.6c24.62,0,44.8-20.18,44.8-44.8V44.8c0-24.62-20.18-44.8-44.8-44.8H44.8Zm0,22.4H425.6c2.11,0,4.03,.36,5.95,.88L250.6,205.79c-8.81,8.9-22.36,8.9-31.15,0L39.02,23.09c1.86-.48,3.75-.7,5.77-.7h0Zm-21.52,16.81L156.63,174.13,23.45,297.68c-.61-2.07-1.05-4.18-1.05-6.48V44.8c0-1.97,.42-3.79,.88-5.6h0Zm423.85,0c.45,1.81,.88,3.62,.88,5.6v246.4c0,2.29-.44,4.41-1.05,6.48l-133.18-123.73L447.13,39.2Zm-149.27,150.68l132.65,123.02c-1.59,.35-3.19,.7-4.9,.7H44.81c-1.71,0-3.31-.35-4.9-.7l132.48-122.85,31.15,31.5c17.29,17.5,45.7,17.48,63,0l31.32-31.68h0Z"/></svg>