<?xml version="1.0" encoding="UTF-8"?><svg id="Layer_1" data-name="Layer 1" xmlns="http://www.w3.org/2000/svg" viewBox="0 0 439.61 539"><path d="M438.66,455l-67.67-98c-11.66-18.67-35-23.34-51.33-11.67l-44.33,28h-4.67l-2.33,2.33c-4.67,0-25.67-4.67-79.33-79.33-46.67-70-46.67-98-44.33-107.33,4.66,0,4.66-2.34,4.66-2.34l46.67-30.33c16.33-9.33,23.33-32.67,11.66-51.33L142.33,11.66v-2.33S130.66,0,112,0s-37.33,7-58.33,23.33l-4.67,2.33C9.33,86.33,0,158.66,0,163.33v4.66c16.33,77,53.67,140,81.67,182l23.33,32.67c30.33,44.33,72.33,98,135.33,140l2.33,2.33c2.33,0,42,14,93.33,14,18.67,0,35-2.33,51.33-4.67l4.67-2.33c58.34-37.33,46.67-77,46.67-77h0Zm-58.33,53.66c-14,2.33-28,4.67-44.33,4.67-42,0-77-9.33-84-11.67-63-44.33-102.67-98-135.33-142.33l-7-9.33c-25.67-39.67-67.67-105-86.33-184.33,2.33-14,11.66-74.67,44.33-123.67,37.34-28,53.67-18.67,58.34-16.34l63,93.33c4.67,7,2.33,14-4.67,18.67l-44.33,28c-2.34,2.34-9.34,7-14,16.34-9.33,25.67,4.67,67.67,46.67,130.67,42,60.67,72.33,88.67,98,88.67,9.33,0,16.33-4.67,18.67-9.33l42-28c7-4.67,14-2.33,18.67,4.67l65.33,93.33c0,4.66,0,25.66-35,46.66h0Z"/></svg>