<?xml version="1.0" encoding="utf-8"?>
<!-- Svg Vector Icons : http://www.onlinewebfonts.com/icon -->
<!DOCTYPE svg PUBLIC "-//W3C//DTD SVG 1.1//EN" "http://www.w3.org/Graphics/SVG/1.1/DTD/svg11.dtd">
<svg fill="#F0F0F0" version="1.1" xmlns="http://www.w3.org/2000/svg" xmlns:xlink="http://www.w3.org/1999/xlink" x="0px" y="0px" viewBox="0 0 1000 1000" enable-background="new 0 0 1000 1000" xml:space="preserve">
<metadata> Svg Vector Icons : http://www.onlinewebfonts.com/icon </metadata>
<g><g><g><path d="M40.6,691.9C67.7,470.1,180.7,399,282,335.9C385.3,271.5,474.7,215.2,464,3.2c-48.2,3.5-94.4,13.8-137.9,30c4.5,168.2-75.2,218.1-152.5,266.2C92,350.3,14.8,398.4,10,588C16.5,624.1,26.7,659,40.6,691.9z"/><path d="M150.1,261.7c72.1-44.9,130.3-81.7,131.6-209.3c-131.2,64.3-230,184.5-265.4,329.5C52.6,322.4,103.1,290.9,150.1,261.7z"/><path d="M163.2,866.5c17.5-236.4,121.3-318.9,221.9-398.8c109.3-86.8,212.5-169,206.7-457.4c-27.1-5.1-54.9-7.9-83.4-8.3c11.5,237.4-97.2,305.9-202.9,371.8C198.4,440.4,87.9,509.7,79.4,766.1C102.9,803.1,131.1,836.9,163.2,866.5z"/><path d="M696.6,606.6c99.8-80.1,194-156.3,188.9-422.1c-26.9-32.7-57.8-61.9-92.1-86.9C792,387.9,679.1,478.6,569.7,566.4c-103,82.6-200.2,160.8-207.3,412.3c41.1,11.8,84.2,18.5,128.9,19.3C503,762.6,601.2,683.1,696.6,606.6z"/><path d="M863.8,710.5c-71.5,43.5-133.5,81.7-140.7,234.9C860.2,876.5,961.3,746.3,990,590.9C957.9,653.1,909.2,682.8,863.8,710.5z"/><path d="M840.7,672.4c76.5-46.7,148.9-90.7,140.1-295.5l2.3-0.1c-11.8-46.2-30.1-89.8-53.8-129.8c-10.5,237.6-109,317.4-204.8,394.3C633.3,714.4,547.4,784,536,996.8c49.6-3.5,97.3-14.4,141.9-31.4C680.6,770,765.6,718.2,840.7,672.4z"/><path d="M541.9,531.7c109.5-87.8,212.9-171,206.8-463.3c-34.9-20.2-72.5-36.2-112.1-47.5c3.2,301.5-112.2,393.1-223.8,481.7C311.1,583.3,215.2,660,206,901.6c34.4,25.3,72.3,46.2,112.7,62.1C329.7,702.7,437.4,615.5,541.9,531.7z"/></g></g><g></g><g></g><g></g><g></g><g></g><g></g><g></g><g></g><g></g><g></g><g></g><g></g><g></g><g></g><g></g></g>
</svg>